<svg xmlns="http://www.w3.org/2000/svg" viewBox="0 0 165 197" width="165" height="197">
  <title>Airbus A300</title>
  <path d="M 81 5 h 3 v 1 h -3 Z M 80 6 h 5 v 1 h -5 Z M 79 7 h 6 v 1 h -6 Z M 79 8 h 7 v 1 h -7 Z M 78 9 h 8 v 1 h -8 Z M 78 10 h 9 v 1 h -9 Z M 77 11 h 10 v 1 h -10 Z M 77 12 h 10 v 1 h -10 Z M 77 13 h 11 v 1 h -11 Z M 76 14 h 12 v 1 h -12 Z M 76 15 h 12 v 1 h -12 Z M 76 16 h 13 v 1 h -13 Z M 75 17 h 14 v 1 h -14 Z M 75 18 h 14 v 1 h -14 Z M 75 19 h 15 v 1 h -15 Z M 75 20 h 15 v 1 h -15 Z M 74 21 h 16 v 1 h -16 Z M 74 22 h 16 v 1 h -16 Z M 74 23 h 16 v 1 h -16 Z M 74 24 h 17 v 1 h -17 Z M 74 25 h 17 v 1 h -17 Z M 73 26 h 18 v 1 h -18 Z M 73 27 h 18 v 1 h -18 Z M 73 28 h 18 v 1 h -18 Z M 73 29 h 18 v 1 h -18 Z M 73 30 h 18 v 1 h -18 Z M 73 31 h 19 v 1 h -19 Z M 73 32 h 19 v 1 h -19 Z M 73 33 h 19 v 1 h -19 Z M 73 34 h 19 v 1 h -19 Z M 73 35 h 19 v 1 h -19 Z M 73 36 h 19 v 1 h -19 Z M 73 37 h 19 v 1 h -19 Z M 73 38 h 19 v 1 h -19 Z M 73 39 h 19 v 1 h -19 Z M 73 40 h 19 v 1 h -19 Z M 73 41 h 19 v 1 h -19 Z M 72 42 h 20 v 1 h -20 Z M 72 43 h 20 v 1 h -20 Z M 72 44 h 20 v 1 h -20 Z M 72 45 h 20 v 1 h -20 Z M 72 46 h 20 v 1 h -20 Z M 72 47 h 20 v 1 h -20 Z M 72 48 h 20 v 1 h -20 Z M 72 49 h 20 v 1 h -20 Z M 72 50 h 20 v 1 h -20 Z M 72 51 h 20 v 1 h -20 Z M 72 52 h 20 v 1 h -20 Z M 72 53 h 20 v 1 h -20 Z M 72 54 h 20 v 1 h -20 Z M 72 55 h 20 v 1 h -20 Z M 72 56 h 20 v 1 h -20 Z M 72 57 h 20 v 1 h -20 Z M 72 58 h 20 v 1 h -20 Z M 50 59 h 9 v 1 h -9 Z M 72 59 h 20 v 1 h -20 Z M 106 59 h 8 v 1 h -8 Z M 50 60 h 9 v 1 h -9 Z M 72 60 h 20 v 1 h -20 Z M 105 60 h 10 v 1 h -10 Z M 50 61 h 9 v 1 h -9 Z M 72 61 h 20 v 1 h -20 Z M 105 61 h 10 v 1 h -10 Z M 50 62 h 9 v 1 h -9 Z M 72 62 h 20 v 1 h -20 Z M 105 62 h 10 v 1 h -10 Z M 50 63 h 9 v 1 h -9 Z M 72 63 h 20 v 1 h -20 Z M 105 63 h 10 v 1 h -10 Z M 50 64 h 9 v 1 h -9 Z M 72 64 h 20 v 1 h -20 Z M 105 64 h 10 v 1 h -10 Z M 50 65 h 9 v 1 h -9 Z M 72 65 h 20 v 1 h -20 Z M 105 65 h 10 v 1 h -10 Z M 50 66 h 9 v 1 h -9 Z M 72 66 h 20 v 1 h -20 Z M 105 66 h 10 v 1 h -10 Z M 50 67 h 9 v 1 h -9 Z M 72 67 h 20 v 1 h -20 Z M 105 67 h 10 v 1 h -10 Z M 50 68 h 9 v 1 h -9 Z M 72 68 h 20 v 1 h -20 Z M 105 68 h 10 v 1 h -10 Z M 50 69 h 9 v 1 h -9 Z M 71 69 h 22 v 1 h -22 Z M 105 69 h 10 v 1 h -10 Z M 50 70 h 9 v 1 h -9 Z M 70 70 h 24 v 1 h -24 Z M 105 70 h 10 v 1 h -10 Z M 50 71 h 9 v 1 h -9 Z M 68 71 h 28 v 1 h -28 Z M 105 71 h 10 v 1 h -10 Z M 50 72 h 9 v 1 h -9 Z M 67 72 h 31 v 1 h -31 Z M 105 72 h 10 v 1 h -10 Z M 50 73 h 9 v 1 h -9 Z M 65 73 h 34 v 1 h -34 Z M 105 73 h 9 v 1 h -9 Z M 50 74 h 9 v 1 h -9 Z M 63 74 h 38 v 1 h -38 Z M 106 74 h 8 v 1 h -8 Z M 51 75 h 7 v 1 h -7 Z M 61 75 h 42 v 1 h -42 Z M 107 75 h 6 v 1 h -6 Z M 52 76 h 5 v 1 h -5 Z M 60 76 h 45 v 1 h -45 Z M 107 76 h 6 v 1 h -6 Z M 52 77 h 61 v 1 h -61 Z M 52 78 h 61 v 1 h -61 Z M 52 79 h 60 v 1 h -60 Z M 52 80 h 61 v 1 h -61 Z M 51 81 h 62 v 1 h -62 Z M 49 82 h 66 v 1 h -66 Z M 48 83 h 68 v 1 h -68 Z M 46 84 h 72 v 1 h -72 Z M 44 85 h 76 v 1 h -76 Z M 43 86 h 79 v 1 h -79 Z M 41 87 h 82 v 1 h -82 Z M 39 88 h 86 v 1 h -86 Z M 38 89 h 89 v 1 h -89 Z M 36 90 h 92 v 1 h -92 Z M 34 91 h 96 v 1 h -96 Z M 33 92 h 99 v 1 h -99 Z M 31 93 h 102 v 1 h -102 Z M 29 94 h 106 v 1 h -106 Z M 27 95 h 110 v 1 h -110 Z M 26 96 h 113 v 1 h -113 Z M 24 97 h 116 v 1 h -116 Z M 22 98 h 120 v 1 h -120 Z M 21 99 h 123 v 1 h -123 Z M 19 100 h 126 v 1 h -126 Z M 17 101 h 130 v 1 h -130 Z M 15 102 h 34 v 1 h -34 Z M 62 102 h 1 v 1 h -1 Z M 72 102 h 20 v 1 h -20 Z M 102 102 h 1 v 1 h -1 Z M 115 102 h 34 v 1 h -34 Z M 14 103 h 33 v 1 h -33 Z M 62 103 h 1 v 1 h -1 Z M 72 103 h 20 v 1 h -20 Z M 118 103 h 33 v 1 h -33 Z M 13 104 h 31 v 1 h -31 Z M 72 104 h 20 v 1 h -20 Z M 118 104 h 1 v 1 h -1 Z M 121 104 h 31 v 1 h -31 Z M 11 105 h 30 v 1 h -30 Z M 72 105 h 20 v 1 h -20 Z M 118 105 h 1 v 1 h -1 Z M 123 105 h 31 v 1 h -31 Z M 9 106 h 29 v 1 h -29 Z M 72 106 h 20 v 1 h -20 Z M 126 106 h 30 v 1 h -30 Z M 7 107 h 29 v 1 h -29 Z M 72 107 h 20 v 1 h -20 Z M 128 107 h 29 v 1 h -29 Z M 5 108 h 28 v 1 h -28 Z M 35 108 h 1 v 1 h -1 Z M 72 108 h 20 v 1 h -20 Z M 132 108 h 27 v 1 h -27 Z M 5 109 h 25 v 1 h -25 Z M 72 109 h 20 v 1 h -20 Z M 134 109 h 26 v 1 h -26 Z M 5 110 h 22 v 1 h -22 Z M 28 110 h 1 v 1 h -1 Z M 72 110 h 20 v 1 h -20 Z M 136 110 h 24 v 1 h -24 Z M 5 111 h 20 v 1 h -20 Z M 28 111 h 1 v 1 h -1 Z M 72 111 h 20 v 1 h -20 Z M 136 111 h 1 v 1 h -1 Z M 139 111 h 21 v 1 h -21 Z M 5 112 h 17 v 1 h -17 Z M 72 112 h 20 v 1 h -20 Z M 142 112 h 18 v 1 h -18 Z M 5 113 h 15 v 1 h -15 Z M 72 113 h 20 v 1 h -20 Z M 144 113 h 16 v 1 h -16 Z M 5 114 h 11 v 1 h -11 Z M 19 114 h 1 v 1 h -1 Z M 72 114 h 20 v 1 h -20 Z M 148 114 h 12 v 1 h -12 Z M 5 115 h 9 v 1 h -9 Z M 72 115 h 20 v 1 h -20 Z M 150 115 h 10 v 1 h -10 Z M 5 116 h 6 v 1 h -6 Z M 72 116 h 20 v 1 h -20 Z M 153 116 h 7 v 1 h -7 Z M 5 117 h 3 v 1 h -3 Z M 72 117 h 20 v 1 h -20 Z M 156 117 h 4 v 1 h -4 Z M 5 118 h 1 v 1 h -1 Z M 72 118 h 20 v 1 h -20 Z M 159 118 h 1 v 1 h -1 Z M 72 119 h 20 v 1 h -20 Z M 73 120 h 19 v 1 h -19 Z M 73 121 h 19 v 1 h -19 Z M 73 122 h 19 v 1 h -19 Z M 73 123 h 19 v 1 h -19 Z M 73 124 h 19 v 1 h -19 Z M 73 125 h 19 v 1 h -19 Z M 73 126 h 19 v 1 h -19 Z M 73 127 h 19 v 1 h -19 Z M 73 128 h 19 v 1 h -19 Z M 73 129 h 19 v 1 h -19 Z M 73 130 h 19 v 1 h -19 Z M 73 131 h 19 v 1 h -19 Z M 73 132 h 19 v 1 h -19 Z M 73 133 h 19 v 1 h -19 Z M 73 134 h 18 v 1 h -18 Z M 73 135 h 18 v 1 h -18 Z M 73 136 h 18 v 1 h -18 Z M 73 137 h 18 v 1 h -18 Z M 73 138 h 18 v 1 h -18 Z M 73 139 h 18 v 1 h -18 Z M 73 140 h 18 v 1 h -18 Z M 74 141 h 17 v 1 h -17 Z M 74 142 h 17 v 1 h -17 Z M 74 143 h 17 v 1 h -17 Z M 74 144 h 17 v 1 h -17 Z M 74 145 h 16 v 1 h -16 Z M 74 146 h 16 v 1 h -16 Z M 74 147 h 16 v 1 h -16 Z M 74 148 h 16 v 1 h -16 Z M 74 149 h 16 v 1 h -16 Z M 74 150 h 16 v 1 h -16 Z M 74 151 h 16 v 1 h -16 Z M 75 152 h 15 v 1 h -15 Z M 75 153 h 15 v 1 h -15 Z M 75 154 h 15 v 1 h -15 Z M 75 155 h 14 v 1 h -14 Z M 75 156 h 14 v 1 h -14 Z M 75 157 h 14 v 1 h -14 Z M 75 158 h 14 v 1 h -14 Z M 75 159 h 14 v 1 h -14 Z M 76 160 h 13 v 1 h -13 Z M 76 161 h 13 v 1 h -13 Z M 76 162 h 12 v 1 h -12 Z M 76 163 h 12 v 1 h -12 Z M 76 164 h 12 v 1 h -12 Z M 76 165 h 12 v 1 h -12 Z M 76 166 h 12 v 1 h -12 Z M 76 167 h 12 v 1 h -12 Z M 75 168 h 14 v 1 h -14 Z M 74 169 h 16 v 1 h -16 Z M 72 170 h 20 v 1 h -20 Z M 71 171 h 22 v 1 h -22 Z M 70 172 h 24 v 1 h -24 Z M 69 173 h 27 v 1 h -27 Z M 67 174 h 30 v 1 h -30 Z M 66 175 h 32 v 1 h -32 Z M 65 176 h 35 v 1 h -35 Z M 63 177 h 38 v 1 h -38 Z M 62 178 h 40 v 1 h -40 Z M 61 179 h 43 v 1 h -43 Z M 59 180 h 46 v 1 h -46 Z M 58 181 h 48 v 1 h -48 Z M 57 182 h 51 v 1 h -51 Z M 55 183 h 30 v 1 h -30 Z M 86 183 h 23 v 1 h -23 Z M 54 184 h 22 v 1 h -22 Z M 80 184 h 4 v 1 h -4 Z M 88 184 h 22 v 1 h -22 Z M 54 185 h 19 v 1 h -19 Z M 80 185 h 4 v 1 h -4 Z M 91 185 h 19 v 1 h -19 Z M 54 186 h 16 v 1 h -16 Z M 80 186 h 4 v 1 h -4 Z M 94 186 h 16 v 1 h -16 Z M 54 187 h 13 v 1 h -13 Z M 80 187 h 4 v 1 h -4 Z M 97 187 h 13 v 1 h -13 Z M 54 188 h 11 v 1 h -11 Z M 81 188 h 3 v 1 h -3 Z M 100 188 h 10 v 1 h -10 Z M 54 189 h 8 v 1 h -8 Z M 81 189 h 2 v 1 h -2 Z M 102 189 h 8 v 1 h -8 Z M 54 190 h 5 v 1 h -5 Z M 81 190 h 2 v 1 h -2 Z M 105 190 h 5 v 1 h -5 Z M 54 191 h 2 v 1 h -2 Z M 81 191 h 2 v 1 h -2 Z M 108 191 h 2 v 1 h -2 Z" fill="black"/>
</svg>