<svg xmlns="http://www.w3.org/2000/svg" viewBox="0 0 129 139" width="129" height="139">
  <title>Airbus A320</title>
  <path d="M 63 5 h 3 v 1 h -3 Z M 62 6 h 5 v 1 h -5 Z M 62 7 h 6 v 1 h -6 Z M 61 8 h 7 v 1 h -7 Z M 61 9 h 8 v 1 h -8 Z M 60 10 h 9 v 1 h -9 Z M 60 11 h 9 v 1 h -9 Z M 60 12 h 10 v 1 h -10 Z M 59 13 h 11 v 1 h -11 Z M 59 14 h 11 v 1 h -11 Z M 59 15 h 12 v 1 h -12 Z M 59 16 h 12 v 1 h -12 Z M 58 17 h 13 v 1 h -13 Z M 58 18 h 13 v 1 h -13 Z M 58 19 h 13 v 1 h -13 Z M 58 20 h 13 v 1 h -13 Z M 58 21 h 13 v 1 h -13 Z M 58 22 h 13 v 1 h -13 Z M 58 23 h 13 v 1 h -13 Z M 58 24 h 13 v 1 h -13 Z M 58 25 h 13 v 1 h -13 Z M 58 26 h 13 v 1 h -13 Z M 58 27 h 13 v 1 h -13 Z M 58 28 h 13 v 1 h -13 Z M 58 29 h 13 v 1 h -13 Z M 58 30 h 13 v 1 h -13 Z M 58 31 h 13 v 1 h -13 Z M 58 32 h 13 v 1 h -13 Z M 58 33 h 13 v 1 h -13 Z M 58 34 h 13 v 1 h -13 Z M 58 35 h 13 v 1 h -13 Z M 58 36 h 13 v 1 h -13 Z M 58 37 h 13 v 1 h -13 Z M 58 38 h 13 v 1 h -13 Z M 58 39 h 13 v 1 h -13 Z M 58 40 h 13 v 1 h -13 Z M 58 41 h 13 v 1 h -13 Z M 58 42 h 13 v 1 h -13 Z M 42 43 h 5 v 1 h -5 Z M 58 43 h 13 v 1 h -13 Z M 83 43 h 4 v 1 h -4 Z M 42 44 h 6 v 1 h -6 Z M 58 44 h 13 v 1 h -13 Z M 82 44 h 6 v 1 h -6 Z M 42 45 h 6 v 1 h -6 Z M 58 45 h 14 v 1 h -14 Z M 81 45 h 7 v 1 h -7 Z M 42 46 h 6 v 1 h -6 Z M 58 46 h 14 v 1 h -14 Z M 81 46 h 7 v 1 h -7 Z M 41 47 h 7 v 1 h -7 Z M 58 47 h 13 v 1 h -13 Z M 81 47 h 7 v 1 h -7 Z M 41 48 h 7 v 1 h -7 Z M 58 48 h 14 v 1 h -14 Z M 81 48 h 7 v 1 h -7 Z M 41 49 h 7 v 1 h -7 Z M 57 49 h 15 v 1 h -15 Z M 81 49 h 7 v 1 h -7 Z M 41 50 h 7 v 1 h -7 Z M 56 50 h 18 v 1 h -18 Z M 81 50 h 7 v 1 h -7 Z M 42 51 h 6 v 1 h -6 Z M 54 51 h 22 v 1 h -22 Z M 81 51 h 7 v 1 h -7 Z M 42 52 h 6 v 1 h -6 Z M 52 52 h 25 v 1 h -25 Z M 81 52 h 7 v 1 h -7 Z M 42 53 h 38 v 1 h -38 Z M 81 53 h 7 v 1 h -7 Z M 42 54 h 45 v 1 h -45 Z M 44 55 h 42 v 1 h -42 Z M 43 56 h 43 v 1 h -43 Z M 42 57 h 46 v 1 h -46 Z M 40 58 h 49 v 1 h -49 Z M 38 59 h 53 v 1 h -53 Z M 36 60 h 57 v 1 h -57 Z M 34 61 h 61 v 1 h -61 Z M 32 62 h 65 v 1 h -65 Z M 30 63 h 69 v 1 h -69 Z M 28 64 h 73 v 1 h -73 Z M 27 65 h 76 v 1 h -76 Z M 25 66 h 80 v 1 h -80 Z M 23 67 h 84 v 1 h -84 Z M 21 68 h 87 v 1 h -87 Z M 19 69 h 26 v 1 h -26 Z M 46 69 h 64 v 1 h -64 Z M 17 70 h 23 v 1 h -23 Z M 47 70 h 1 v 1 h -1 Z M 58 70 h 13 v 1 h -13 Z M 81 70 h 1 v 1 h -1 Z M 89 70 h 23 v 1 h -23 Z M 15 71 h 22 v 1 h -22 Z M 47 71 h 1 v 1 h -1 Z M 58 71 h 13 v 1 h -13 Z M 91 71 h 23 v 1 h -23 Z M 13 72 h 23 v 1 h -23 Z M 58 72 h 13 v 1 h -13 Z M 93 72 h 23 v 1 h -23 Z M 11 73 h 21 v 1 h -21 Z M 58 73 h 13 v 1 h -13 Z M 93 73 h 1 v 1 h -1 Z M 98 73 h 20 v 1 h -20 Z M 10 74 h 19 v 1 h -19 Z M 58 74 h 13 v 1 h -13 Z M 101 74 h 19 v 1 h -19 Z M 8 75 h 17 v 1 h -17 Z M 58 75 h 13 v 1 h -13 Z M 104 75 h 17 v 1 h -17 Z M 7 76 h 17 v 1 h -17 Z M 58 76 h 13 v 1 h -13 Z M 106 76 h 17 v 1 h -17 Z M 6 77 h 13 v 1 h -13 Z M 58 77 h 13 v 1 h -13 Z M 106 77 h 1 v 1 h -1 Z M 110 77 h 13 v 1 h -13 Z M 6 78 h 9 v 1 h -9 Z M 58 78 h 13 v 1 h -13 Z M 114 78 h 10 v 1 h -10 Z M 5 79 h 8 v 1 h -8 Z M 58 79 h 13 v 1 h -13 Z M 116 79 h 8 v 1 h -8 Z M 5 80 h 4 v 1 h -4 Z M 58 80 h 13 v 1 h -13 Z M 120 80 h 4 v 1 h -4 Z M 5 81 h 2 v 1 h -2 Z M 58 81 h 13 v 1 h -13 Z M 122 81 h 2 v 1 h -2 Z M 5 82 h 1 v 1 h -1 Z M 58 82 h 13 v 1 h -13 Z M 123 82 h 1 v 1 h -1 Z M 58 83 h 13 v 1 h -13 Z M 58 84 h 13 v 1 h -13 Z M 58 85 h 13 v 1 h -13 Z M 58 86 h 13 v 1 h -13 Z M 58 87 h 13 v 1 h -13 Z M 58 88 h 13 v 1 h -13 Z M 58 89 h 13 v 1 h -13 Z M 58 90 h 13 v 1 h -13 Z M 58 91 h 13 v 1 h -13 Z M 58 92 h 13 v 1 h -13 Z M 58 93 h 13 v 1 h -13 Z M 58 94 h 13 v 1 h -13 Z M 58 95 h 13 v 1 h -13 Z M 58 96 h 13 v 1 h -13 Z M 58 97 h 13 v 1 h -13 Z M 58 98 h 13 v 1 h -13 Z M 58 99 h 13 v 1 h -13 Z M 58 100 h 13 v 1 h -13 Z M 59 101 h 12 v 1 h -12 Z M 59 102 h 12 v 1 h -12 Z M 59 103 h 12 v 1 h -12 Z M 59 104 h 11 v 1 h -11 Z M 59 105 h 11 v 1 h -11 Z M 59 106 h 11 v 1 h -11 Z M 59 107 h 11 v 1 h -11 Z M 59 108 h 11 v 1 h -11 Z M 60 109 h 10 v 1 h -10 Z M 60 110 h 10 v 1 h -10 Z M 60 111 h 9 v 1 h -9 Z M 60 112 h 9 v 1 h -9 Z M 60 113 h 9 v 1 h -9 Z M 60 114 h 9 v 1 h -9 Z M 60 115 h 9 v 1 h -9 Z M 59 116 h 11 v 1 h -11 Z M 58 117 h 13 v 1 h -13 Z M 57 118 h 15 v 1 h -15 Z M 56 119 h 18 v 1 h -18 Z M 54 120 h 21 v 1 h -21 Z M 53 121 h 24 v 1 h -24 Z M 51 122 h 27 v 1 h -27 Z M 50 123 h 29 v 1 h -29 Z M 49 124 h 32 v 1 h -32 Z M 47 125 h 35 v 1 h -35 Z M 46 126 h 37 v 1 h -37 Z M 45 127 h 40 v 1 h -40 Z M 43 128 h 18 v 1 h -18 Z M 62 128 h 24 v 1 h -24 Z M 43 129 h 14 v 1 h -14 Z M 63 129 h 4 v 1 h -4 Z M 73 129 h 13 v 1 h -13 Z M 43 130 h 10 v 1 h -10 Z M 63 130 h 4 v 1 h -4 Z M 76 130 h 11 v 1 h -11 Z M 43 131 h 6 v 1 h -6 Z M 63 131 h 3 v 1 h -3 Z M 81 131 h 6 v 1 h -6 Z M 43 132 h 1 v 1 h -1 Z M 63 132 h 3 v 1 h -3 Z M 85 132 h 1 v 1 h -1 Z M 64 133 h 2 v 1 h -2 Z" fill="black"/>
</svg>