<svg xmlns="http://www.w3.org/2000/svg" viewBox="0 0 165 171" width="165" height="171">
  <title>Boeing 707</title>
  <path d="M 80 5 h 3 v 1 h -3 Z M 80 6 h 4 v 1 h -4 Z M 79 7 h 5 v 1 h -5 Z M 79 8 h 6 v 1 h -6 Z M 79 9 h 6 v 1 h -6 Z M 78 10 h 7 v 1 h -7 Z M 78 11 h 8 v 1 h -8 Z M 78 12 h 8 v 1 h -8 Z M 77 13 h 9 v 1 h -9 Z M 77 14 h 9 v 1 h -9 Z M 77 15 h 10 v 1 h -10 Z M 77 16 h 10 v 1 h -10 Z M 76 17 h 11 v 1 h -11 Z M 76 18 h 11 v 1 h -11 Z M 76 19 h 12 v 1 h -12 Z M 76 20 h 12 v 1 h -12 Z M 76 21 h 12 v 1 h -12 Z M 75 22 h 13 v 1 h -13 Z M 75 23 h 13 v 1 h -13 Z M 75 24 h 13 v 1 h -13 Z M 75 25 h 14 v 1 h -14 Z M 75 26 h 14 v 1 h -14 Z M 75 27 h 14 v 1 h -14 Z M 75 28 h 14 v 1 h -14 Z M 75 29 h 14 v 1 h -14 Z M 75 30 h 14 v 1 h -14 Z M 75 31 h 14 v 1 h -14 Z M 74 32 h 15 v 1 h -15 Z M 74 33 h 15 v 1 h -15 Z M 74 34 h 15 v 1 h -15 Z M 74 35 h 15 v 1 h -15 Z M 74 36 h 15 v 1 h -15 Z M 74 37 h 15 v 1 h -15 Z M 74 38 h 15 v 1 h -15 Z M 74 39 h 15 v 1 h -15 Z M 74 40 h 16 v 1 h -16 Z M 74 41 h 16 v 1 h -16 Z M 74 42 h 16 v 1 h -16 Z M 74 43 h 16 v 1 h -16 Z M 74 44 h 16 v 1 h -16 Z M 74 45 h 16 v 1 h -16 Z M 74 46 h 16 v 1 h -16 Z M 74 47 h 16 v 1 h -16 Z M 74 48 h 16 v 1 h -16 Z M 74 49 h 16 v 1 h -16 Z M 74 50 h 16 v 1 h -16 Z M 74 51 h 16 v 1 h -16 Z M 75 52 h 15 v 1 h -15 Z M 74 53 h 16 v 1 h -16 Z M 74 54 h 17 v 1 h -17 Z M 73 55 h 19 v 1 h -19 Z M 72 56 h 21 v 1 h -21 Z M 71 57 h 23 v 1 h -23 Z M 70 58 h 25 v 1 h -25 Z M 49 59 h 2 v 1 h -2 Z M 69 59 h 27 v 1 h -27 Z M 112 59 h 5 v 1 h -5 Z M 47 60 h 6 v 1 h -6 Z M 67 60 h 30 v 1 h -30 Z M 111 60 h 6 v 1 h -6 Z M 47 61 h 6 v 1 h -6 Z M 66 61 h 32 v 1 h -32 Z M 111 61 h 6 v 1 h -6 Z M 47 62 h 6 v 1 h -6 Z M 65 62 h 35 v 1 h -35 Z M 111 62 h 6 v 1 h -6 Z M 47 63 h 6 v 1 h -6 Z M 64 63 h 37 v 1 h -37 Z M 111 63 h 6 v 1 h -6 Z M 47 64 h 6 v 1 h -6 Z M 63 64 h 39 v 1 h -39 Z M 111 64 h 6 v 1 h -6 Z M 47 65 h 6 v 1 h -6 Z M 62 65 h 41 v 1 h -41 Z M 111 65 h 6 v 1 h -6 Z M 47 66 h 6 v 1 h -6 Z M 61 66 h 43 v 1 h -43 Z M 111 66 h 6 v 1 h -6 Z M 48 67 h 5 v 1 h -5 Z M 60 67 h 45 v 1 h -45 Z M 112 67 h 5 v 1 h -5 Z M 48 68 h 5 v 1 h -5 Z M 59 68 h 47 v 1 h -47 Z M 112 68 h 5 v 1 h -5 Z M 48 69 h 5 v 1 h -5 Z M 58 69 h 49 v 1 h -49 Z M 112 69 h 5 v 1 h -5 Z M 48 70 h 5 v 1 h -5 Z M 57 70 h 51 v 1 h -51 Z M 112 70 h 5 v 1 h -5 Z M 48 71 h 5 v 1 h -5 Z M 56 71 h 54 v 1 h -54 Z M 112 71 h 5 v 1 h -5 Z M 48 72 h 5 v 1 h -5 Z M 54 72 h 57 v 1 h -57 Z M 112 72 h 5 v 1 h -5 Z M 48 73 h 69 v 1 h -69 Z M 48 74 h 69 v 1 h -69 Z M 48 75 h 69 v 1 h -69 Z M 48 76 h 69 v 1 h -69 Z M 136 76 h 2 v 1 h -2 Z M 25 77 h 5 v 1 h -5 Z M 48 77 h 69 v 1 h -69 Z M 135 77 h 5 v 1 h -5 Z M 25 78 h 5 v 1 h -5 Z M 47 78 h 71 v 1 h -71 Z M 135 78 h 5 v 1 h -5 Z M 25 79 h 5 v 1 h -5 Z M 46 79 h 73 v 1 h -73 Z M 135 79 h 5 v 1 h -5 Z M 25 80 h 5 v 1 h -5 Z M 45 80 h 75 v 1 h -75 Z M 135 80 h 5 v 1 h -5 Z M 25 81 h 5 v 1 h -5 Z M 44 81 h 78 v 1 h -78 Z M 135 81 h 5 v 1 h -5 Z M 25 82 h 5 v 1 h -5 Z M 43 82 h 80 v 1 h -80 Z M 135 82 h 5 v 1 h -5 Z M 25 83 h 5 v 1 h -5 Z M 41 83 h 83 v 1 h -83 Z M 135 83 h 5 v 1 h -5 Z M 25 84 h 5 v 1 h -5 Z M 40 84 h 86 v 1 h -86 Z M 135 84 h 5 v 1 h -5 Z M 25 85 h 5 v 1 h -5 Z M 39 85 h 88 v 1 h -88 Z M 135 85 h 5 v 1 h -5 Z M 25 86 h 5 v 1 h -5 Z M 37 86 h 91 v 1 h -91 Z M 135 86 h 5 v 1 h -5 Z M 25 87 h 5 v 1 h -5 Z M 36 87 h 94 v 1 h -94 Z M 135 87 h 5 v 1 h -5 Z M 25 88 h 5 v 1 h -5 Z M 35 88 h 96 v 1 h -96 Z M 135 88 h 5 v 1 h -5 Z M 25 89 h 5 v 1 h -5 Z M 34 89 h 98 v 1 h -98 Z M 135 89 h 5 v 1 h -5 Z M 25 90 h 5 v 1 h -5 Z M 32 90 h 102 v 1 h -102 Z M 135 90 h 5 v 1 h -5 Z M 25 91 h 5 v 1 h -5 Z M 31 91 h 109 v 1 h -109 Z M 25 92 h 68 v 1 h -68 Z M 98 92 h 42 v 1 h -42 Z M 26 93 h 40 v 1 h -40 Z M 73 93 h 18 v 1 h -18 Z M 100 93 h 40 v 1 h -40 Z M 26 94 h 38 v 1 h -38 Z M 74 94 h 17 v 1 h -17 Z M 103 94 h 37 v 1 h -37 Z M 26 95 h 36 v 1 h -36 Z M 75 95 h 15 v 1 h -15 Z M 105 95 h 35 v 1 h -35 Z M 25 96 h 35 v 1 h -35 Z M 75 96 h 15 v 1 h -15 Z M 107 96 h 35 v 1 h -35 Z M 24 97 h 34 v 1 h -34 Z M 75 97 h 15 v 1 h -15 Z M 109 97 h 34 v 1 h -34 Z M 22 98 h 34 v 1 h -34 Z M 75 98 h 15 v 1 h -15 Z M 111 98 h 33 v 1 h -33 Z M 21 99 h 33 v 1 h -33 Z M 75 99 h 15 v 1 h -15 Z M 113 99 h 33 v 1 h -33 Z M 20 100 h 31 v 1 h -31 Z M 75 100 h 15 v 1 h -15 Z M 115 100 h 32 v 1 h -32 Z M 19 101 h 31 v 1 h -31 Z M 75 101 h 15 v 1 h -15 Z M 117 101 h 31 v 1 h -31 Z M 17 102 h 30 v 1 h -30 Z M 75 102 h 15 v 1 h -15 Z M 119 102 h 30 v 1 h -30 Z M 16 103 h 29 v 1 h -29 Z M 75 103 h 15 v 1 h -15 Z M 122 103 h 29 v 1 h -29 Z M 15 104 h 28 v 1 h -28 Z M 75 104 h 15 v 1 h -15 Z M 124 104 h 28 v 1 h -28 Z M 14 105 h 27 v 1 h -27 Z M 75 105 h 15 v 1 h -15 Z M 126 105 h 27 v 1 h -27 Z M 12 106 h 27 v 1 h -27 Z M 75 106 h 15 v 1 h -15 Z M 128 106 h 27 v 1 h -27 Z M 11 107 h 26 v 1 h -26 Z M 75 107 h 15 v 1 h -15 Z M 130 107 h 26 v 1 h -26 Z M 10 108 h 25 v 1 h -25 Z M 75 108 h 15 v 1 h -15 Z M 132 108 h 25 v 1 h -25 Z M 9 109 h 24 v 1 h -24 Z M 75 109 h 15 v 1 h -15 Z M 135 109 h 23 v 1 h -23 Z M 7 110 h 24 v 1 h -24 Z M 75 110 h 15 v 1 h -15 Z M 137 110 h 22 v 1 h -22 Z M 6 111 h 23 v 1 h -23 Z M 76 111 h 14 v 1 h -14 Z M 139 111 h 21 v 1 h -21 Z M 6 112 h 21 v 1 h -21 Z M 76 112 h 14 v 1 h -14 Z M 141 112 h 19 v 1 h -19 Z M 6 113 h 19 v 1 h -19 Z M 76 113 h 14 v 1 h -14 Z M 143 113 h 17 v 1 h -17 Z M 5 114 h 18 v 1 h -18 Z M 76 114 h 14 v 1 h -14 Z M 145 114 h 15 v 1 h -15 Z M 5 115 h 16 v 1 h -16 Z M 76 115 h 14 v 1 h -14 Z M 147 115 h 13 v 1 h -13 Z M 5 116 h 14 v 1 h -14 Z M 76 116 h 14 v 1 h -14 Z M 149 116 h 11 v 1 h -11 Z M 5 117 h 12 v 1 h -12 Z M 76 117 h 14 v 1 h -14 Z M 152 117 h 8 v 1 h -8 Z M 5 118 h 10 v 1 h -10 Z M 76 118 h 14 v 1 h -14 Z M 154 118 h 6 v 1 h -6 Z M 6 119 h 7 v 1 h -7 Z M 76 119 h 14 v 1 h -14 Z M 156 119 h 4 v 1 h -4 Z M 6 120 h 5 v 1 h -5 Z M 77 120 h 12 v 1 h -12 Z M 158 120 h 1 v 1 h -1 Z M 6 121 h 3 v 1 h -3 Z M 77 121 h 12 v 1 h -12 Z M 6 122 h 1 v 1 h -1 Z M 77 122 h 12 v 1 h -12 Z M 77 123 h 12 v 1 h -12 Z M 77 124 h 12 v 1 h -12 Z M 77 125 h 12 v 1 h -12 Z M 77 126 h 12 v 1 h -12 Z M 78 127 h 11 v 1 h -11 Z M 78 128 h 11 v 1 h -11 Z M 78 129 h 10 v 1 h -10 Z M 78 130 h 10 v 1 h -10 Z M 78 131 h 10 v 1 h -10 Z M 78 132 h 10 v 1 h -10 Z M 79 133 h 9 v 1 h -9 Z M 79 134 h 9 v 1 h -9 Z M 79 135 h 9 v 1 h -9 Z M 79 136 h 8 v 1 h -8 Z M 79 137 h 8 v 1 h -8 Z M 79 138 h 8 v 1 h -8 Z M 80 139 h 7 v 1 h -7 Z M 79 140 h 9 v 1 h -9 Z M 78 141 h 11 v 1 h -11 Z M 77 142 h 13 v 1 h -13 Z M 76 143 h 15 v 1 h -15 Z M 75 144 h 17 v 1 h -17 Z M 74 145 h 19 v 1 h -19 Z M 73 146 h 22 v 1 h -22 Z M 72 147 h 24 v 1 h -24 Z M 70 148 h 27 v 1 h -27 Z M 69 149 h 29 v 1 h -29 Z M 68 150 h 31 v 1 h -31 Z M 67 151 h 34 v 1 h -34 Z M 66 152 h 36 v 1 h -36 Z M 65 153 h 38 v 1 h -38 Z M 64 154 h 40 v 1 h -40 Z M 63 155 h 42 v 1 h -42 Z M 61 156 h 45 v 1 h -45 Z M 61 157 h 46 v 1 h -46 Z M 60 158 h 47 v 1 h -47 Z M 60 159 h 20 v 1 h -20 Z M 83 159 h 1 v 1 h -1 Z M 87 159 h 20 v 1 h -20 Z M 60 160 h 17 v 1 h -17 Z M 83 160 h 1 v 1 h -1 Z M 91 160 h 16 v 1 h -16 Z M 60 161 h 15 v 1 h -15 Z M 94 161 h 13 v 1 h -13 Z M 61 162 h 11 v 1 h -11 Z M 97 162 h 10 v 1 h -10 Z M 61 163 h 8 v 1 h -8 Z M 100 163 h 7 v 1 h -7 Z M 61 164 h 5 v 1 h -5 Z M 104 164 h 3 v 1 h -3 Z M 61 165 h 2 v 1 h -2 Z" fill="black"/>
</svg>