<svg xmlns="http://www.w3.org/2000/svg" viewBox="0 0 216 207" width="216" height="207">
  <title>Boeing 787</title>
  <path d="M 107 5 h 2 v 1 h -2 Z M 106 6 h 4 v 1 h -4 Z M 105 7 h 5 v 1 h -5 Z M 105 8 h 6 v 1 h -6 Z M 104 9 h 8 v 1 h -8 Z M 103 10 h 9 v 1 h -9 Z M 103 11 h 10 v 1 h -10 Z M 102 12 h 11 v 1 h -11 Z M 102 13 h 12 v 1 h -12 Z M 102 14 h 12 v 1 h -12 Z M 101 15 h 13 v 1 h -13 Z M 101 16 h 14 v 1 h -14 Z M 101 17 h 14 v 1 h -14 Z M 100 18 h 15 v 1 h -15 Z M 100 19 h 16 v 1 h -16 Z M 100 20 h 16 v 1 h -16 Z M 100 21 h 16 v 1 h -16 Z M 99 22 h 17 v 1 h -17 Z M 99 23 h 18 v 1 h -18 Z M 99 24 h 18 v 1 h -18 Z M 99 25 h 18 v 1 h -18 Z M 99 26 h 18 v 1 h -18 Z M 99 27 h 18 v 1 h -18 Z M 99 28 h 18 v 1 h -18 Z M 98 29 h 19 v 1 h -19 Z M 98 30 h 19 v 1 h -19 Z M 98 31 h 20 v 1 h -20 Z M 98 32 h 20 v 1 h -20 Z M 98 33 h 20 v 1 h -20 Z M 98 34 h 20 v 1 h -20 Z M 98 35 h 20 v 1 h -20 Z M 98 36 h 20 v 1 h -20 Z M 98 37 h 20 v 1 h -20 Z M 98 38 h 20 v 1 h -20 Z M 98 39 h 20 v 1 h -20 Z M 98 40 h 20 v 1 h -20 Z M 98 41 h 20 v 1 h -20 Z M 98 42 h 20 v 1 h -20 Z M 98 43 h 20 v 1 h -20 Z M 98 44 h 20 v 1 h -20 Z M 98 45 h 20 v 1 h -20 Z M 98 46 h 20 v 1 h -20 Z M 98 47 h 20 v 1 h -20 Z M 98 48 h 20 v 1 h -20 Z M 98 49 h 20 v 1 h -20 Z M 98 50 h 20 v 1 h -20 Z M 98 51 h 20 v 1 h -20 Z M 98 52 h 20 v 1 h -20 Z M 98 53 h 20 v 1 h -20 Z M 98 54 h 20 v 1 h -20 Z M 98 55 h 20 v 1 h -20 Z M 98 56 h 20 v 1 h -20 Z M 98 57 h 20 v 1 h -20 Z M 98 58 h 20 v 1 h -20 Z M 98 59 h 20 v 1 h -20 Z M 98 60 h 20 v 1 h -20 Z M 98 61 h 20 v 1 h -20 Z M 98 62 h 20 v 1 h -20 Z M 68 63 h 11 v 1 h -11 Z M 98 63 h 20 v 1 h -20 Z M 136 63 h 12 v 1 h -12 Z M 67 64 h 13 v 1 h -13 Z M 98 64 h 20 v 1 h -20 Z M 136 64 h 12 v 1 h -12 Z M 67 65 h 13 v 1 h -13 Z M 98 65 h 20 v 1 h -20 Z M 136 65 h 13 v 1 h -13 Z M 67 66 h 13 v 1 h -13 Z M 98 66 h 20 v 1 h -20 Z M 136 66 h 13 v 1 h -13 Z M 67 67 h 13 v 1 h -13 Z M 98 67 h 20 v 1 h -20 Z M 136 67 h 13 v 1 h -13 Z M 67 68 h 13 v 1 h -13 Z M 98 68 h 20 v 1 h -20 Z M 136 68 h 13 v 1 h -13 Z M 67 69 h 13 v 1 h -13 Z M 98 69 h 20 v 1 h -20 Z M 135 69 h 14 v 1 h -14 Z M 67 70 h 13 v 1 h -13 Z M 97 70 h 22 v 1 h -22 Z M 135 70 h 14 v 1 h -14 Z M 67 71 h 13 v 1 h -13 Z M 96 71 h 24 v 1 h -24 Z M 135 71 h 14 v 1 h -14 Z M 67 72 h 13 v 1 h -13 Z M 94 72 h 28 v 1 h -28 Z M 135 72 h 14 v 1 h -14 Z M 67 73 h 13 v 1 h -13 Z M 93 73 h 30 v 1 h -30 Z M 135 73 h 14 v 1 h -14 Z M 67 74 h 13 v 1 h -13 Z M 91 74 h 34 v 1 h -34 Z M 135 74 h 14 v 1 h -14 Z M 67 75 h 13 v 1 h -13 Z M 90 75 h 36 v 1 h -36 Z M 136 75 h 13 v 1 h -13 Z M 67 76 h 13 v 1 h -13 Z M 88 76 h 39 v 1 h -39 Z M 136 76 h 13 v 1 h -13 Z M 67 77 h 13 v 1 h -13 Z M 87 77 h 42 v 1 h -42 Z M 136 77 h 13 v 1 h -13 Z M 67 78 h 13 v 1 h -13 Z M 86 78 h 44 v 1 h -44 Z M 136 78 h 13 v 1 h -13 Z M 67 79 h 13 v 1 h -13 Z M 84 79 h 48 v 1 h -48 Z M 136 79 h 12 v 1 h -12 Z M 68 80 h 12 v 1 h -12 Z M 83 80 h 50 v 1 h -50 Z M 136 80 h 12 v 1 h -12 Z M 68 81 h 11 v 1 h -11 Z M 81 81 h 54 v 1 h -54 Z M 136 81 h 12 v 1 h -12 Z M 68 82 h 80 v 1 h -80 Z M 68 83 h 1 v 1 h -1 Z M 70 83 h 76 v 1 h -76 Z M 71 84 h 74 v 1 h -74 Z M 71 85 h 74 v 1 h -74 Z M 72 86 h 72 v 1 h -72 Z M 72 87 h 72 v 1 h -72 Z M 71 88 h 74 v 1 h -74 Z M 70 89 h 76 v 1 h -76 Z M 68 90 h 79 v 1 h -79 Z M 67 91 h 82 v 1 h -82 Z M 66 92 h 84 v 1 h -84 Z M 64 93 h 88 v 1 h -88 Z M 63 94 h 90 v 1 h -90 Z M 61 95 h 93 v 1 h -93 Z M 60 96 h 96 v 1 h -96 Z M 59 97 h 98 v 1 h -98 Z M 57 98 h 102 v 1 h -102 Z M 56 99 h 104 v 1 h -104 Z M 54 100 h 108 v 1 h -108 Z M 53 101 h 110 v 1 h -110 Z M 51 102 h 113 v 1 h -113 Z M 50 103 h 116 v 1 h -116 Z M 49 104 h 118 v 1 h -118 Z M 47 105 h 122 v 1 h -122 Z M 46 106 h 124 v 1 h -124 Z M 44 107 h 127 v 1 h -127 Z M 43 108 h 130 v 1 h -130 Z M 42 109 h 132 v 1 h -132 Z M 40 110 h 136 v 1 h -136 Z M 39 111 h 138 v 1 h -138 Z M 37 112 h 142 v 1 h -142 Z M 36 113 h 32 v 1 h -32 Z M 77 113 h 2 v 1 h -2 Z M 98 113 h 20 v 1 h -20 Z M 137 113 h 2 v 1 h -2 Z M 148 113 h 32 v 1 h -32 Z M 34 114 h 32 v 1 h -32 Z M 77 114 h 2 v 1 h -2 Z M 98 114 h 20 v 1 h -20 Z M 137 114 h 2 v 1 h -2 Z M 150 114 h 31 v 1 h -31 Z M 33 115 h 30 v 1 h -30 Z M 77 115 h 1 v 1 h -1 Z M 98 115 h 20 v 1 h -20 Z M 137 115 h 2 v 1 h -2 Z M 152 115 h 31 v 1 h -31 Z M 31 116 h 30 v 1 h -30 Z M 98 116 h 20 v 1 h -20 Z M 155 116 h 29 v 1 h -29 Z M 30 117 h 29 v 1 h -29 Z M 98 117 h 20 v 1 h -20 Z M 157 117 h 29 v 1 h -29 Z M 29 118 h 30 v 1 h -30 Z M 98 118 h 20 v 1 h -20 Z M 157 118 h 30 v 1 h -30 Z M 27 119 h 27 v 1 h -27 Z M 57 119 h 1 v 1 h -1 Z M 98 119 h 20 v 1 h -20 Z M 157 119 h 2 v 1 h -2 Z M 161 119 h 28 v 1 h -28 Z M 26 120 h 26 v 1 h -26 Z M 57 120 h 1 v 1 h -1 Z M 98 120 h 20 v 1 h -20 Z M 158 120 h 1 v 1 h -1 Z M 164 120 h 26 v 1 h -26 Z M 24 121 h 26 v 1 h -26 Z M 98 121 h 20 v 1 h -20 Z M 166 121 h 25 v 1 h -25 Z M 23 122 h 24 v 1 h -24 Z M 98 122 h 20 v 1 h -20 Z M 168 122 h 25 v 1 h -25 Z M 22 123 h 23 v 1 h -23 Z M 98 123 h 20 v 1 h -20 Z M 171 123 h 23 v 1 h -23 Z M 20 124 h 24 v 1 h -24 Z M 98 124 h 20 v 1 h -20 Z M 172 124 h 24 v 1 h -24 Z M 19 125 h 25 v 1 h -25 Z M 98 125 h 20 v 1 h -20 Z M 172 125 h 25 v 1 h -25 Z M 17 126 h 21 v 1 h -21 Z M 42 126 h 1 v 1 h -1 Z M 98 126 h 20 v 1 h -20 Z M 173 126 h 1 v 1 h -1 Z M 177 126 h 22 v 1 h -22 Z M 16 127 h 20 v 1 h -20 Z M 42 127 h 1 v 1 h -1 Z M 98 127 h 20 v 1 h -20 Z M 173 127 h 1 v 1 h -1 Z M 180 127 h 20 v 1 h -20 Z M 15 128 h 19 v 1 h -19 Z M 98 128 h 20 v 1 h -20 Z M 182 128 h 19 v 1 h -19 Z M 13 129 h 18 v 1 h -18 Z M 98 129 h 20 v 1 h -20 Z M 185 129 h 18 v 1 h -18 Z M 12 130 h 17 v 1 h -17 Z M 98 130 h 20 v 1 h -20 Z M 187 130 h 17 v 1 h -17 Z M 11 131 h 16 v 1 h -16 Z M 98 131 h 20 v 1 h -20 Z M 189 131 h 16 v 1 h -16 Z M 10 132 h 14 v 1 h -14 Z M 98 132 h 20 v 1 h -20 Z M 191 132 h 15 v 1 h -15 Z M 10 133 h 12 v 1 h -12 Z M 98 133 h 20 v 1 h -20 Z M 194 133 h 12 v 1 h -12 Z M 9 134 h 11 v 1 h -11 Z M 98 134 h 20 v 1 h -20 Z M 196 134 h 11 v 1 h -11 Z M 8 135 h 9 v 1 h -9 Z M 98 135 h 20 v 1 h -20 Z M 198 135 h 9 v 1 h -9 Z M 8 136 h 7 v 1 h -7 Z M 98 136 h 20 v 1 h -20 Z M 201 136 h 7 v 1 h -7 Z M 7 137 h 6 v 1 h -6 Z M 98 137 h 20 v 1 h -20 Z M 202 137 h 7 v 1 h -7 Z M 6 138 h 6 v 1 h -6 Z M 98 138 h 20 v 1 h -20 Z M 204 138 h 5 v 1 h -5 Z M 6 139 h 5 v 1 h -5 Z M 98 139 h 20 v 1 h -20 Z M 205 139 h 5 v 1 h -5 Z M 5 140 h 4 v 1 h -4 Z M 98 140 h 20 v 1 h -20 Z M 206 140 h 5 v 1 h -5 Z M 5 141 h 3 v 1 h -3 Z M 98 141 h 20 v 1 h -20 Z M 208 141 h 3 v 1 h -3 Z M 5 142 h 2 v 1 h -2 Z M 98 142 h 20 v 1 h -20 Z M 209 142 h 2 v 1 h -2 Z M 5 143 h 1 v 1 h -1 Z M 98 143 h 20 v 1 h -20 Z M 210 143 h 1 v 1 h -1 Z M 98 144 h 20 v 1 h -20 Z M 98 145 h 20 v 1 h -20 Z M 98 146 h 20 v 1 h -20 Z M 98 147 h 20 v 1 h -20 Z M 98 148 h 20 v 1 h -20 Z M 98 149 h 20 v 1 h -20 Z M 98 150 h 20 v 1 h -20 Z M 98 151 h 20 v 1 h -20 Z M 98 152 h 20 v 1 h -20 Z M 98 153 h 20 v 1 h -20 Z M 98 154 h 20 v 1 h -20 Z M 98 155 h 20 v 1 h -20 Z M 98 156 h 19 v 1 h -19 Z M 98 157 h 19 v 1 h -19 Z M 99 158 h 18 v 1 h -18 Z M 99 159 h 18 v 1 h -18 Z M 99 160 h 18 v 1 h -18 Z M 99 161 h 18 v 1 h -18 Z M 99 162 h 18 v 1 h -18 Z M 99 163 h 18 v 1 h -18 Z M 99 164 h 17 v 1 h -17 Z M 100 165 h 16 v 1 h -16 Z M 100 166 h 16 v 1 h -16 Z M 100 167 h 16 v 1 h -16 Z M 100 168 h 16 v 1 h -16 Z M 100 169 h 16 v 1 h -16 Z M 100 170 h 15 v 1 h -15 Z M 101 171 h 14 v 1 h -14 Z M 101 172 h 14 v 1 h -14 Z M 100 173 h 16 v 1 h -16 Z M 99 174 h 18 v 1 h -18 Z M 98 175 h 20 v 1 h -20 Z M 97 176 h 22 v 1 h -22 Z M 96 177 h 24 v 1 h -24 Z M 95 178 h 26 v 1 h -26 Z M 94 179 h 28 v 1 h -28 Z M 93 180 h 30 v 1 h -30 Z M 91 181 h 33 v 1 h -33 Z M 90 182 h 36 v 1 h -36 Z M 89 183 h 38 v 1 h -38 Z M 88 184 h 40 v 1 h -40 Z M 87 185 h 42 v 1 h -42 Z M 86 186 h 44 v 1 h -44 Z M 85 187 h 46 v 1 h -46 Z M 84 188 h 48 v 1 h -48 Z M 83 189 h 50 v 1 h -50 Z M 81 190 h 53 v 1 h -53 Z M 80 191 h 22 v 1 h -22 Z M 105 191 h 6 v 1 h -6 Z M 114 191 h 21 v 1 h -21 Z M 79 192 h 20 v 1 h -20 Z M 105 192 h 5 v 1 h -5 Z M 117 192 h 20 v 1 h -20 Z M 78 193 h 18 v 1 h -18 Z M 106 193 h 4 v 1 h -4 Z M 119 193 h 19 v 1 h -19 Z M 77 194 h 17 v 1 h -17 Z M 106 194 h 4 v 1 h -4 Z M 122 194 h 17 v 1 h -17 Z M 76 195 h 15 v 1 h -15 Z M 106 195 h 4 v 1 h -4 Z M 125 195 h 15 v 1 h -15 Z M 75 196 h 13 v 1 h -13 Z M 106 196 h 4 v 1 h -4 Z M 128 196 h 13 v 1 h -13 Z M 75 197 h 10 v 1 h -10 Z M 107 197 h 2 v 1 h -2 Z M 131 197 h 10 v 1 h -10 Z M 75 198 h 8 v 1 h -8 Z M 107 198 h 2 v 1 h -2 Z M 133 198 h 8 v 1 h -8 Z M 74 199 h 6 v 1 h -6 Z M 107 199 h 2 v 1 h -2 Z M 136 199 h 6 v 1 h -6 Z M 74 200 h 3 v 1 h -3 Z M 139 200 h 3 v 1 h -3 Z M 74 201 h 1 v 1 h -1 Z M 141 201 h 1 v 1 h -1 Z" fill="black"/>
</svg>