<svg xmlns="http://www.w3.org/2000/svg" viewBox="0 0 211 253" width="211" height="253">
  <title>Boeing 747</title>
  <path d="M 104 5 h 3 v 1 h -3 Z M 103 6 h 5 v 1 h -5 Z M 103 7 h 5 v 1 h -5 Z M 102 8 h 7 v 1 h -7 Z M 102 9 h 7 v 1 h -7 Z M 101 10 h 9 v 1 h -9 Z M 101 11 h 9 v 1 h -9 Z M 100 12 h 11 v 1 h -11 Z M 100 13 h 11 v 1 h -11 Z M 100 14 h 11 v 1 h -11 Z M 99 15 h 13 v 1 h -13 Z M 99 16 h 13 v 1 h -13 Z M 99 17 h 13 v 1 h -13 Z M 98 18 h 14 v 1 h -14 Z M 98 19 h 15 v 1 h -15 Z M 98 20 h 15 v 1 h -15 Z M 98 21 h 15 v 1 h -15 Z M 97 22 h 16 v 1 h -16 Z M 97 23 h 17 v 1 h -17 Z M 97 24 h 17 v 1 h -17 Z M 97 25 h 17 v 1 h -17 Z M 97 26 h 17 v 1 h -17 Z M 96 27 h 19 v 1 h -19 Z M 96 28 h 19 v 1 h -19 Z M 96 29 h 19 v 1 h -19 Z M 96 30 h 19 v 1 h -19 Z M 96 31 h 19 v 1 h -19 Z M 95 32 h 20 v 1 h -20 Z M 95 33 h 20 v 1 h -20 Z M 95 34 h 21 v 1 h -21 Z M 95 35 h 21 v 1 h -21 Z M 95 36 h 21 v 1 h -21 Z M 95 37 h 21 v 1 h -21 Z M 95 38 h 21 v 1 h -21 Z M 95 39 h 21 v 1 h -21 Z M 95 40 h 21 v 1 h -21 Z M 95 41 h 21 v 1 h -21 Z M 95 42 h 21 v 1 h -21 Z M 95 43 h 21 v 1 h -21 Z M 95 44 h 21 v 1 h -21 Z M 95 45 h 21 v 1 h -21 Z M 95 46 h 21 v 1 h -21 Z M 95 47 h 21 v 1 h -21 Z M 95 48 h 21 v 1 h -21 Z M 95 49 h 21 v 1 h -21 Z M 95 50 h 21 v 1 h -21 Z M 95 51 h 21 v 1 h -21 Z M 95 52 h 21 v 1 h -21 Z M 95 53 h 21 v 1 h -21 Z M 95 54 h 21 v 1 h -21 Z M 95 55 h 21 v 1 h -21 Z M 95 56 h 21 v 1 h -21 Z M 95 57 h 21 v 1 h -21 Z M 95 58 h 21 v 1 h -21 Z M 95 59 h 21 v 1 h -21 Z M 95 60 h 21 v 1 h -21 Z M 95 61 h 21 v 1 h -21 Z M 95 62 h 21 v 1 h -21 Z M 95 63 h 21 v 1 h -21 Z M 95 64 h 21 v 1 h -21 Z M 95 65 h 21 v 1 h -21 Z M 95 66 h 21 v 1 h -21 Z M 95 67 h 21 v 1 h -21 Z M 95 68 h 21 v 1 h -21 Z M 95 69 h 21 v 1 h -21 Z M 95 70 h 21 v 1 h -21 Z M 95 71 h 21 v 1 h -21 Z M 95 72 h 21 v 1 h -21 Z M 95 73 h 21 v 1 h -21 Z M 95 74 h 21 v 1 h -21 Z M 94 75 h 22 v 1 h -22 Z M 94 76 h 23 v 1 h -23 Z M 92 77 h 26 v 1 h -26 Z M 91 78 h 29 v 1 h -29 Z M 90 79 h 31 v 1 h -31 Z M 89 80 h 33 v 1 h -33 Z M 88 81 h 35 v 1 h -35 Z M 87 82 h 37 v 1 h -37 Z M 86 83 h 39 v 1 h -39 Z M 85 84 h 41 v 1 h -41 Z M 84 85 h 43 v 1 h -43 Z M 83 86 h 45 v 1 h -45 Z M 82 87 h 47 v 1 h -47 Z M 61 88 h 9 v 1 h -9 Z M 80 88 h 51 v 1 h -51 Z M 141 88 h 9 v 1 h -9 Z M 61 89 h 9 v 1 h -9 Z M 79 89 h 53 v 1 h -53 Z M 141 89 h 9 v 1 h -9 Z M 61 90 h 9 v 1 h -9 Z M 78 90 h 55 v 1 h -55 Z M 141 90 h 9 v 1 h -9 Z M 61 91 h 9 v 1 h -9 Z M 77 91 h 57 v 1 h -57 Z M 141 91 h 9 v 1 h -9 Z M 61 92 h 9 v 1 h -9 Z M 76 92 h 59 v 1 h -59 Z M 141 92 h 9 v 1 h -9 Z M 61 93 h 9 v 1 h -9 Z M 75 93 h 61 v 1 h -61 Z M 141 93 h 9 v 1 h -9 Z M 61 94 h 9 v 1 h -9 Z M 74 94 h 63 v 1 h -63 Z M 141 94 h 9 v 1 h -9 Z M 61 95 h 9 v 1 h -9 Z M 72 95 h 66 v 1 h -66 Z M 141 95 h 9 v 1 h -9 Z M 61 96 h 9 v 1 h -9 Z M 71 96 h 79 v 1 h -79 Z M 61 97 h 89 v 1 h -89 Z M 62 98 h 87 v 1 h -87 Z M 63 99 h 85 v 1 h -85 Z M 63 100 h 85 v 1 h -85 Z M 63 101 h 85 v 1 h -85 Z M 63 102 h 85 v 1 h -85 Z M 63 103 h 85 v 1 h -85 Z M 63 104 h 85 v 1 h -85 Z M 62 105 h 87 v 1 h -87 Z M 61 106 h 89 v 1 h -89 Z M 60 107 h 91 v 1 h -91 Z M 58 108 h 95 v 1 h -95 Z M 57 109 h 97 v 1 h -97 Z M 56 110 h 99 v 1 h -99 Z M 55 111 h 101 v 1 h -101 Z M 54 112 h 103 v 1 h -103 Z M 53 113 h 105 v 1 h -105 Z M 52 114 h 107 v 1 h -107 Z M 31 115 h 9 v 1 h -9 Z M 51 115 h 109 v 1 h -109 Z M 171 115 h 9 v 1 h -9 Z M 31 116 h 9 v 1 h -9 Z M 50 116 h 111 v 1 h -111 Z M 171 116 h 9 v 1 h -9 Z M 31 117 h 9 v 1 h -9 Z M 49 117 h 113 v 1 h -113 Z M 171 117 h 9 v 1 h -9 Z M 31 118 h 9 v 1 h -9 Z M 47 118 h 117 v 1 h -117 Z M 171 118 h 9 v 1 h -9 Z M 31 119 h 9 v 1 h -9 Z M 46 119 h 119 v 1 h -119 Z M 171 119 h 9 v 1 h -9 Z M 31 120 h 9 v 1 h -9 Z M 45 120 h 121 v 1 h -121 Z M 171 120 h 9 v 1 h -9 Z M 31 121 h 9 v 1 h -9 Z M 44 121 h 123 v 1 h -123 Z M 171 121 h 9 v 1 h -9 Z M 31 122 h 9 v 1 h -9 Z M 43 122 h 125 v 1 h -125 Z M 171 122 h 9 v 1 h -9 Z M 31 123 h 9 v 1 h -9 Z M 42 123 h 127 v 1 h -127 Z M 171 123 h 9 v 1 h -9 Z M 31 124 h 149 v 1 h -149 Z M 32 125 h 147 v 1 h -147 Z M 32 126 h 146 v 1 h -146 Z M 33 127 h 57 v 1 h -57 Z M 95 127 h 21 v 1 h -21 Z M 121 127 h 57 v 1 h -57 Z M 33 128 h 54 v 1 h -54 Z M 95 128 h 21 v 1 h -21 Z M 124 128 h 54 v 1 h -54 Z M 33 129 h 51 v 1 h -51 Z M 86 129 h 1 v 1 h -1 Z M 95 129 h 21 v 1 h -21 Z M 124 129 h 1 v 1 h -1 Z M 127 129 h 51 v 1 h -51 Z M 33 130 h 48 v 1 h -48 Z M 86 130 h 1 v 1 h -1 Z M 95 130 h 21 v 1 h -21 Z M 124 130 h 1 v 1 h -1 Z M 130 130 h 48 v 1 h -48 Z M 33 131 h 46 v 1 h -46 Z M 95 131 h 21 v 1 h -21 Z M 132 131 h 46 v 1 h -46 Z M 32 132 h 46 v 1 h -46 Z M 95 132 h 21 v 1 h -21 Z M 133 132 h 46 v 1 h -46 Z M 31 133 h 43 v 1 h -43 Z M 76 133 h 1 v 1 h -1 Z M 95 133 h 21 v 1 h -21 Z M 134 133 h 1 v 1 h -1 Z M 137 133 h 43 v 1 h -43 Z M 30 134 h 42 v 1 h -42 Z M 95 134 h 21 v 1 h -21 Z M 139 134 h 42 v 1 h -42 Z M 29 135 h 40 v 1 h -40 Z M 95 135 h 21 v 1 h -21 Z M 141 135 h 41 v 1 h -41 Z M 28 136 h 39 v 1 h -39 Z M 95 136 h 21 v 1 h -21 Z M 144 136 h 39 v 1 h -39 Z M 26 137 h 39 v 1 h -39 Z M 95 137 h 21 v 1 h -21 Z M 146 137 h 38 v 1 h -38 Z M 25 138 h 38 v 1 h -38 Z M 95 138 h 21 v 1 h -21 Z M 148 138 h 38 v 1 h -38 Z M 24 139 h 37 v 1 h -37 Z M 95 139 h 21 v 1 h -21 Z M 150 139 h 37 v 1 h -37 Z M 23 140 h 36 v 1 h -36 Z M 95 140 h 21 v 1 h -21 Z M 152 140 h 36 v 1 h -36 Z M 22 141 h 35 v 1 h -35 Z M 95 141 h 21 v 1 h -21 Z M 154 141 h 35 v 1 h -35 Z M 21 142 h 36 v 1 h -36 Z M 95 142 h 21 v 1 h -21 Z M 154 142 h 36 v 1 h -36 Z M 20 143 h 33 v 1 h -33 Z M 56 143 h 1 v 1 h -1 Z M 95 143 h 21 v 1 h -21 Z M 154 143 h 1 v 1 h -1 Z M 158 143 h 33 v 1 h -33 Z M 19 144 h 32 v 1 h -32 Z M 95 144 h 21 v 1 h -21 Z M 160 144 h 32 v 1 h -32 Z M 18 145 h 31 v 1 h -31 Z M 95 145 h 21 v 1 h -21 Z M 162 145 h 31 v 1 h -31 Z M 17 146 h 30 v 1 h -30 Z M 95 146 h 21 v 1 h -21 Z M 164 146 h 30 v 1 h -30 Z M 16 147 h 29 v 1 h -29 Z M 95 147 h 21 v 1 h -21 Z M 166 147 h 29 v 1 h -29 Z M 14 148 h 30 v 1 h -30 Z M 95 148 h 21 v 1 h -21 Z M 167 148 h 29 v 1 h -29 Z M 13 149 h 29 v 1 h -29 Z M 43 149 h 1 v 1 h -1 Z M 95 149 h 21 v 1 h -21 Z M 167 149 h 1 v 1 h -1 Z M 169 149 h 29 v 1 h -29 Z M 12 150 h 28 v 1 h -28 Z M 43 150 h 1 v 1 h -1 Z M 95 150 h 21 v 1 h -21 Z M 167 150 h 1 v 1 h -1 Z M 171 150 h 28 v 1 h -28 Z M 11 151 h 27 v 1 h -27 Z M 95 151 h 21 v 1 h -21 Z M 173 151 h 27 v 1 h -27 Z M 10 152 h 26 v 1 h -26 Z M 95 152 h 21 v 1 h -21 Z M 175 152 h 26 v 1 h -26 Z M 9 153 h 25 v 1 h -25 Z M 95 153 h 21 v 1 h -21 Z M 176 153 h 26 v 1 h -26 Z M 8 154 h 25 v 1 h -25 Z M 95 154 h 21 v 1 h -21 Z M 178 154 h 25 v 1 h -25 Z M 7 155 h 24 v 1 h -24 Z M 95 155 h 21 v 1 h -21 Z M 180 155 h 24 v 1 h -24 Z M 6 156 h 23 v 1 h -23 Z M 95 156 h 21 v 1 h -21 Z M 182 156 h 23 v 1 h -23 Z M 6 157 h 22 v 1 h -22 Z M 95 157 h 21 v 1 h -21 Z M 183 157 h 22 v 1 h -22 Z M 6 158 h 20 v 1 h -20 Z M 95 158 h 21 v 1 h -21 Z M 185 158 h 20 v 1 h -20 Z M 5 159 h 19 v 1 h -19 Z M 95 159 h 21 v 1 h -21 Z M 187 159 h 18 v 1 h -18 Z M 6 160 h 16 v 1 h -16 Z M 95 160 h 21 v 1 h -21 Z M 188 160 h 17 v 1 h -17 Z M 5 161 h 16 v 1 h -16 Z M 95 161 h 21 v 1 h -21 Z M 190 161 h 15 v 1 h -15 Z M 5 162 h 14 v 1 h -14 Z M 95 162 h 21 v 1 h -21 Z M 192 162 h 13 v 1 h -13 Z M 5 163 h 12 v 1 h -12 Z M 95 163 h 21 v 1 h -21 Z M 193 163 h 12 v 1 h -12 Z M 5 164 h 11 v 1 h -11 Z M 95 164 h 21 v 1 h -21 Z M 195 164 h 10 v 1 h -10 Z M 5 165 h 9 v 1 h -9 Z M 95 165 h 21 v 1 h -21 Z M 197 165 h 8 v 1 h -8 Z M 5 166 h 8 v 1 h -8 Z M 95 166 h 21 v 1 h -21 Z M 198 166 h 8 v 1 h -8 Z M 5 167 h 6 v 1 h -6 Z M 95 167 h 21 v 1 h -21 Z M 200 167 h 6 v 1 h -6 Z M 5 168 h 4 v 1 h -4 Z M 95 168 h 21 v 1 h -21 Z M 202 168 h 4 v 1 h -4 Z M 5 169 h 3 v 1 h -3 Z M 95 169 h 21 v 1 h -21 Z M 203 169 h 3 v 1 h -3 Z M 5 170 h 1 v 1 h -1 Z M 95 170 h 21 v 1 h -21 Z M 204 170 h 2 v 1 h -2 Z M 5 171 h 1 v 1 h -1 Z M 95 171 h 21 v 1 h -21 Z M 205 171 h 1 v 1 h -1 Z M 5 172 h 1 v 1 h -1 Z M 95 172 h 21 v 1 h -21 Z M 205 172 h 1 v 1 h -1 Z M 95 173 h 21 v 1 h -21 Z M 95 174 h 21 v 1 h -21 Z M 95 175 h 21 v 1 h -21 Z M 95 176 h 21 v 1 h -21 Z M 95 177 h 21 v 1 h -21 Z M 95 178 h 21 v 1 h -21 Z M 95 179 h 21 v 1 h -21 Z M 95 180 h 21 v 1 h -21 Z M 95 181 h 21 v 1 h -21 Z M 95 182 h 21 v 1 h -21 Z M 95 183 h 21 v 1 h -21 Z M 95 184 h 21 v 1 h -21 Z M 95 185 h 21 v 1 h -21 Z M 95 186 h 21 v 1 h -21 Z M 95 187 h 21 v 1 h -21 Z M 95 188 h 21 v 1 h -21 Z M 95 189 h 21 v 1 h -21 Z M 95 190 h 21 v 1 h -21 Z M 95 191 h 20 v 1 h -20 Z M 96 192 h 19 v 1 h -19 Z M 96 193 h 19 v 1 h -19 Z M 96 194 h 19 v 1 h -19 Z M 96 195 h 19 v 1 h -19 Z M 96 196 h 19 v 1 h -19 Z M 96 197 h 18 v 1 h -18 Z M 97 198 h 17 v 1 h -17 Z M 97 199 h 17 v 1 h -17 Z M 97 200 h 17 v 1 h -17 Z M 97 201 h 16 v 1 h -16 Z M 98 202 h 15 v 1 h -15 Z M 98 203 h 15 v 1 h -15 Z M 98 204 h 15 v 1 h -15 Z M 98 205 h 15 v 1 h -15 Z M 98 206 h 15 v 1 h -15 Z M 98 207 h 15 v 1 h -15 Z M 98 208 h 15 v 1 h -15 Z M 97 209 h 17 v 1 h -17 Z M 96 210 h 19 v 1 h -19 Z M 95 211 h 21 v 1 h -21 Z M 94 212 h 23 v 1 h -23 Z M 93 213 h 25 v 1 h -25 Z M 92 214 h 27 v 1 h -27 Z M 91 215 h 29 v 1 h -29 Z M 90 216 h 31 v 1 h -31 Z M 89 217 h 33 v 1 h -33 Z M 88 218 h 35 v 1 h -35 Z M 87 219 h 37 v 1 h -37 Z M 86 220 h 39 v 1 h -39 Z M 84 221 h 42 v 1 h -42 Z M 83 222 h 45 v 1 h -45 Z M 82 223 h 46 v 1 h -46 Z M 81 224 h 49 v 1 h -49 Z M 80 225 h 51 v 1 h -51 Z M 79 226 h 53 v 1 h -53 Z M 78 227 h 55 v 1 h -55 Z M 77 228 h 57 v 1 h -57 Z M 76 229 h 59 v 1 h -59 Z M 75 230 h 61 v 1 h -61 Z M 74 231 h 63 v 1 h -63 Z M 73 232 h 65 v 1 h -65 Z M 72 233 h 67 v 1 h -67 Z M 71 234 h 69 v 1 h -69 Z M 70 235 h 32 v 1 h -32 Z M 104 235 h 3 v 1 h -3 Z M 109 235 h 32 v 1 h -32 Z M 69 236 h 29 v 1 h -29 Z M 104 236 h 2 v 1 h -2 Z M 113 236 h 28 v 1 h -28 Z M 69 237 h 25 v 1 h -25 Z M 105 237 h 1 v 1 h -1 Z M 116 237 h 26 v 1 h -26 Z M 69 238 h 22 v 1 h -22 Z M 105 238 h 1 v 1 h -1 Z M 120 238 h 22 v 1 h -22 Z M 69 239 h 18 v 1 h -18 Z M 105 239 h 1 v 1 h -1 Z M 124 239 h 18 v 1 h -18 Z M 69 240 h 15 v 1 h -15 Z M 105 240 h 1 v 1 h -1 Z M 127 240 h 15 v 1 h -15 Z M 69 241 h 11 v 1 h -11 Z M 105 241 h 1 v 1 h -1 Z M 130 241 h 12 v 1 h -12 Z M 69 242 h 8 v 1 h -8 Z M 105 242 h 1 v 1 h -1 Z M 134 242 h 8 v 1 h -8 Z M 69 243 h 4 v 1 h -4 Z M 105 243 h 1 v 1 h -1 Z M 138 243 h 4 v 1 h -4 Z M 105 244 h 1 v 1 h -1 Z M 141 244 h 1 v 1 h -1 Z M 105 245 h 1 v 1 h -1 Z M 105 246 h 1 v 1 h -1 Z M 105 247 h 1 v 1 h -1 Z" fill="black"/>
</svg>