<svg xmlns="http://www.w3.org/2000/svg" viewBox="0 0 121 165" width="121" height="165">
  <title>Douglas MD-11</title>
  <path d="M 59 5 h 3 v 1 h -3 Z M 58 6 h 5 v 1 h -5 Z M 58 7 h 5 v 1 h -5 Z M 58 8 h 5 v 1 h -5 Z M 57 9 h 7 v 1 h -7 Z M 57 10 h 7 v 1 h -7 Z M 57 11 h 8 v 1 h -8 Z M 56 12 h 9 v 1 h -9 Z M 56 13 h 9 v 1 h -9 Z M 56 14 h 9 v 1 h -9 Z M 56 15 h 9 v 1 h -9 Z M 55 16 h 11 v 1 h -11 Z M 55 17 h 11 v 1 h -11 Z M 55 18 h 11 v 1 h -11 Z M 55 19 h 11 v 1 h -11 Z M 55 20 h 11 v 1 h -11 Z M 55 21 h 11 v 1 h -11 Z M 55 22 h 11 v 1 h -11 Z M 55 23 h 11 v 1 h -11 Z M 55 24 h 11 v 1 h -11 Z M 55 25 h 11 v 1 h -11 Z M 55 26 h 11 v 1 h -11 Z M 55 27 h 11 v 1 h -11 Z M 55 28 h 11 v 1 h -11 Z M 55 29 h 11 v 1 h -11 Z M 55 30 h 11 v 1 h -11 Z M 55 31 h 11 v 1 h -11 Z M 55 32 h 11 v 1 h -11 Z M 55 33 h 11 v 1 h -11 Z M 55 34 h 11 v 1 h -11 Z M 55 35 h 11 v 1 h -11 Z M 55 36 h 11 v 1 h -11 Z M 55 37 h 11 v 1 h -11 Z M 55 38 h 11 v 1 h -11 Z M 55 39 h 11 v 1 h -11 Z M 55 40 h 11 v 1 h -11 Z M 55 41 h 11 v 1 h -11 Z M 55 42 h 11 v 1 h -11 Z M 55 43 h 11 v 1 h -11 Z M 55 44 h 11 v 1 h -11 Z M 55 45 h 11 v 1 h -11 Z M 55 46 h 11 v 1 h -11 Z M 55 47 h 11 v 1 h -11 Z M 55 48 h 11 v 1 h -11 Z M 55 49 h 11 v 1 h -11 Z M 55 50 h 11 v 1 h -11 Z M 55 51 h 11 v 1 h -11 Z M 55 52 h 11 v 1 h -11 Z M 55 53 h 11 v 1 h -11 Z M 55 54 h 11 v 1 h -11 Z M 55 55 h 11 v 1 h -11 Z M 55 56 h 11 v 1 h -11 Z M 55 57 h 11 v 1 h -11 Z M 55 58 h 11 v 1 h -11 Z M 55 59 h 11 v 1 h -11 Z M 55 60 h 11 v 1 h -11 Z M 55 61 h 11 v 1 h -11 Z M 55 62 h 11 v 1 h -11 Z M 55 63 h 11 v 1 h -11 Z M 55 64 h 11 v 1 h -11 Z M 55 65 h 11 v 1 h -11 Z M 55 66 h 11 v 1 h -11 Z M 55 67 h 11 v 1 h -11 Z M 55 68 h 11 v 1 h -11 Z M 55 69 h 11 v 1 h -11 Z M 55 70 h 11 v 1 h -11 Z M 55 71 h 11 v 1 h -11 Z M 55 72 h 11 v 1 h -11 Z M 55 73 h 11 v 1 h -11 Z M 55 74 h 11 v 1 h -11 Z M 55 75 h 12 v 1 h -12 Z M 54 76 h 13 v 1 h -13 Z M 53 77 h 15 v 1 h -15 Z M 51 78 h 19 v 1 h -19 Z M 49 79 h 23 v 1 h -23 Z M 48 80 h 25 v 1 h -25 Z M 46 81 h 29 v 1 h -29 Z M 44 82 h 33 v 1 h -33 Z M 42 83 h 37 v 1 h -37 Z M 40 84 h 41 v 1 h -41 Z M 39 85 h 43 v 1 h -43 Z M 37 86 h 47 v 1 h -47 Z M 35 87 h 51 v 1 h -51 Z M 33 88 h 55 v 1 h -55 Z M 31 89 h 59 v 1 h -59 Z M 29 90 h 63 v 1 h -63 Z M 28 91 h 66 v 1 h -66 Z M 26 92 h 69 v 1 h -69 Z M 24 93 h 73 v 1 h -73 Z M 22 94 h 77 v 1 h -77 Z M 20 95 h 81 v 1 h -81 Z M 18 96 h 85 v 1 h -85 Z M 16 97 h 27 v 1 h -27 Z M 55 97 h 11 v 1 h -11 Z M 78 97 h 26 v 1 h -26 Z M 15 98 h 24 v 1 h -24 Z M 55 98 h 11 v 1 h -11 Z M 82 98 h 24 v 1 h -24 Z M 13 99 h 23 v 1 h -23 Z M 55 99 h 11 v 1 h -11 Z M 86 99 h 22 v 1 h -22 Z M 11 100 h 21 v 1 h -21 Z M 55 100 h 11 v 1 h -11 Z M 89 100 h 21 v 1 h -21 Z M 9 101 h 20 v 1 h -20 Z M 55 101 h 11 v 1 h -11 Z M 92 101 h 20 v 1 h -20 Z M 7 102 h 18 v 1 h -18 Z M 55 102 h 11 v 1 h -11 Z M 96 102 h 18 v 1 h -18 Z M 6 103 h 15 v 1 h -15 Z M 55 103 h 11 v 1 h -11 Z M 100 103 h 15 v 1 h -15 Z M 6 104 h 12 v 1 h -12 Z M 55 104 h 11 v 1 h -11 Z M 103 104 h 12 v 1 h -12 Z M 6 105 h 8 v 1 h -8 Z M 55 105 h 11 v 1 h -11 Z M 107 105 h 9 v 1 h -9 Z M 5 106 h 6 v 1 h -6 Z M 55 106 h 11 v 1 h -11 Z M 110 106 h 6 v 1 h -6 Z M 5 107 h 3 v 1 h -3 Z M 55 107 h 11 v 1 h -11 Z M 112 107 h 4 v 1 h -4 Z M 5 108 h 1 v 1 h -1 Z M 55 108 h 11 v 1 h -11 Z M 115 108 h 1 v 1 h -1 Z M 55 109 h 11 v 1 h -11 Z M 55 110 h 11 v 1 h -11 Z M 55 111 h 11 v 1 h -11 Z M 55 112 h 11 v 1 h -11 Z M 49 113 h 23 v 1 h -23 Z M 47 114 h 27 v 1 h -27 Z M 47 115 h 27 v 1 h -27 Z M 47 116 h 27 v 1 h -27 Z M 47 117 h 27 v 1 h -27 Z M 47 118 h 27 v 1 h -27 Z M 47 119 h 27 v 1 h -27 Z M 47 120 h 27 v 1 h -27 Z M 47 121 h 27 v 1 h -27 Z M 47 122 h 27 v 1 h -27 Z M 47 123 h 27 v 1 h -27 Z M 47 124 h 27 v 1 h -27 Z M 47 125 h 27 v 1 h -27 Z M 47 126 h 27 v 1 h -27 Z M 48 127 h 26 v 1 h -26 Z M 48 128 h 25 v 1 h -25 Z M 48 129 h 25 v 1 h -25 Z M 48 130 h 25 v 1 h -25 Z M 48 131 h 25 v 1 h -25 Z M 48 132 h 25 v 1 h -25 Z M 53 133 h 15 v 1 h -15 Z M 53 134 h 15 v 1 h -15 Z M 53 135 h 15 v 1 h -15 Z M 53 136 h 15 v 1 h -15 Z M 53 137 h 15 v 1 h -15 Z M 53 138 h 15 v 1 h -15 Z M 57 139 h 7 v 1 h -7 Z M 58 140 h 6 v 1 h -6 Z M 58 141 h 5 v 1 h -5 Z M 58 142 h 5 v 1 h -5 Z M 58 143 h 5 v 1 h -5 Z M 57 144 h 7 v 1 h -7 Z M 55 145 h 11 v 1 h -11 Z M 54 146 h 13 v 1 h -13 Z M 53 147 h 15 v 1 h -15 Z M 51 148 h 19 v 1 h -19 Z M 50 149 h 21 v 1 h -21 Z M 48 150 h 25 v 1 h -25 Z M 47 151 h 27 v 1 h -27 Z M 46 152 h 30 v 1 h -30 Z M 44 153 h 33 v 1 h -33 Z M 43 154 h 35 v 1 h -35 Z M 41 155 h 17 v 1 h -17 Z M 59 155 h 3 v 1 h -3 Z M 63 155 h 17 v 1 h -17 Z M 41 156 h 13 v 1 h -13 Z M 60 156 h 1 v 1 h -1 Z M 66 156 h 15 v 1 h -15 Z M 40 157 h 11 v 1 h -11 Z M 60 157 h 1 v 1 h -1 Z M 70 157 h 11 v 1 h -11 Z M 40 158 h 7 v 1 h -7 Z M 74 158 h 8 v 1 h -8 Z M 39 159 h 5 v 1 h -5 Z M 77 159 h 5 v 1 h -5 Z" fill="black"/>
</svg>