<svg xmlns="http://www.w3.org/2000/svg" viewBox="0 0 167 182" width="167" height="182">
  <title>Douglas DC-9</title>
  <path d="M 82 5 h 3 v 1 h -3 Z M 81 6 h 5 v 1 h -5 Z M 80 7 h 6 v 1 h -6 Z M 80 8 h 7 v 1 h -7 Z M 79 9 h 9 v 1 h -9 Z M 79 10 h 9 v 1 h -9 Z M 79 11 h 9 v 1 h -9 Z M 78 12 h 11 v 1 h -11 Z M 78 13 h 11 v 1 h -11 Z M 78 14 h 11 v 1 h -11 Z M 77 15 h 13 v 1 h -13 Z M 77 16 h 13 v 1 h -13 Z M 77 17 h 13 v 1 h -13 Z M 76 18 h 15 v 1 h -15 Z M 76 19 h 15 v 1 h -15 Z M 76 20 h 15 v 1 h -15 Z M 76 21 h 15 v 1 h -15 Z M 76 22 h 15 v 1 h -15 Z M 76 23 h 16 v 1 h -16 Z M 75 24 h 17 v 1 h -17 Z M 75 25 h 17 v 1 h -17 Z M 75 26 h 17 v 1 h -17 Z M 75 27 h 17 v 1 h -17 Z M 75 28 h 17 v 1 h -17 Z M 75 29 h 17 v 1 h -17 Z M 75 30 h 17 v 1 h -17 Z M 75 31 h 17 v 1 h -17 Z M 75 32 h 18 v 1 h -18 Z M 74 33 h 19 v 1 h -19 Z M 74 34 h 19 v 1 h -19 Z M 74 35 h 19 v 1 h -19 Z M 74 36 h 19 v 1 h -19 Z M 74 37 h 19 v 1 h -19 Z M 74 38 h 19 v 1 h -19 Z M 74 39 h 19 v 1 h -19 Z M 74 40 h 19 v 1 h -19 Z M 74 41 h 19 v 1 h -19 Z M 74 42 h 19 v 1 h -19 Z M 74 43 h 19 v 1 h -19 Z M 74 44 h 19 v 1 h -19 Z M 74 45 h 19 v 1 h -19 Z M 74 46 h 19 v 1 h -19 Z M 74 47 h 19 v 1 h -19 Z M 74 48 h 19 v 1 h -19 Z M 74 49 h 19 v 1 h -19 Z M 74 50 h 19 v 1 h -19 Z M 74 51 h 19 v 1 h -19 Z M 74 52 h 19 v 1 h -19 Z M 74 53 h 19 v 1 h -19 Z M 74 54 h 19 v 1 h -19 Z M 74 55 h 19 v 1 h -19 Z M 74 56 h 19 v 1 h -19 Z M 74 57 h 19 v 1 h -19 Z M 74 58 h 19 v 1 h -19 Z M 74 59 h 19 v 1 h -19 Z M 74 60 h 19 v 1 h -19 Z M 74 61 h 19 v 1 h -19 Z M 74 62 h 19 v 1 h -19 Z M 74 63 h 19 v 1 h -19 Z M 74 64 h 19 v 1 h -19 Z M 74 65 h 19 v 1 h -19 Z M 74 66 h 19 v 1 h -19 Z M 74 67 h 19 v 1 h -19 Z M 74 68 h 19 v 1 h -19 Z M 55 69 h 6 v 1 h -6 Z M 74 69 h 19 v 1 h -19 Z M 107 69 h 5 v 1 h -5 Z M 54 70 h 7 v 1 h -7 Z M 74 70 h 19 v 1 h -19 Z M 106 70 h 7 v 1 h -7 Z M 54 71 h 8 v 1 h -8 Z M 74 71 h 19 v 1 h -19 Z M 105 71 h 8 v 1 h -8 Z M 54 72 h 8 v 1 h -8 Z M 74 72 h 19 v 1 h -19 Z M 105 72 h 8 v 1 h -8 Z M 54 73 h 8 v 1 h -8 Z M 73 73 h 21 v 1 h -21 Z M 105 73 h 8 v 1 h -8 Z M 54 74 h 8 v 1 h -8 Z M 72 74 h 23 v 1 h -23 Z M 105 74 h 8 v 1 h -8 Z M 54 75 h 8 v 1 h -8 Z M 70 75 h 27 v 1 h -27 Z M 105 75 h 8 v 1 h -8 Z M 54 76 h 8 v 1 h -8 Z M 69 76 h 29 v 1 h -29 Z M 105 76 h 8 v 1 h -8 Z M 54 77 h 8 v 1 h -8 Z M 68 77 h 31 v 1 h -31 Z M 105 77 h 8 v 1 h -8 Z M 54 78 h 8 v 1 h -8 Z M 67 78 h 33 v 1 h -33 Z M 105 78 h 8 v 1 h -8 Z M 54 79 h 8 v 1 h -8 Z M 65 79 h 37 v 1 h -37 Z M 106 79 h 7 v 1 h -7 Z M 54 80 h 7 v 1 h -7 Z M 64 80 h 39 v 1 h -39 Z M 105 80 h 8 v 1 h -8 Z M 54 81 h 7 v 1 h -7 Z M 63 81 h 41 v 1 h -41 Z M 106 81 h 7 v 1 h -7 Z M 55 82 h 58 v 1 h -58 Z M 55 83 h 57 v 1 h -57 Z M 55 84 h 57 v 1 h -57 Z M 55 85 h 57 v 1 h -57 Z M 55 86 h 57 v 1 h -57 Z M 55 87 h 57 v 1 h -57 Z M 54 88 h 59 v 1 h -59 Z M 53 89 h 61 v 1 h -61 Z M 51 90 h 65 v 1 h -65 Z M 50 91 h 67 v 1 h -67 Z M 49 92 h 69 v 1 h -69 Z M 47 93 h 73 v 1 h -73 Z M 46 94 h 75 v 1 h -75 Z M 45 95 h 77 v 1 h -77 Z M 44 96 h 79 v 1 h -79 Z M 42 97 h 83 v 1 h -83 Z M 41 98 h 85 v 1 h -85 Z M 40 99 h 87 v 1 h -87 Z M 39 100 h 89 v 1 h -89 Z M 37 101 h 93 v 1 h -93 Z M 36 102 h 95 v 1 h -95 Z M 35 103 h 97 v 1 h -97 Z M 33 104 h 100 v 1 h -100 Z M 32 105 h 103 v 1 h -103 Z M 31 106 h 105 v 1 h -105 Z M 30 107 h 107 v 1 h -107 Z M 28 108 h 111 v 1 h -111 Z M 27 109 h 113 v 1 h -113 Z M 26 110 h 40 v 1 h -40 Z M 74 110 h 19 v 1 h -19 Z M 101 110 h 40 v 1 h -40 Z M 24 111 h 35 v 1 h -35 Z M 74 111 h 19 v 1 h -19 Z M 108 111 h 35 v 1 h -35 Z M 23 112 h 31 v 1 h -31 Z M 74 112 h 19 v 1 h -19 Z M 113 112 h 31 v 1 h -31 Z M 22 113 h 29 v 1 h -29 Z M 74 113 h 19 v 1 h -19 Z M 116 113 h 29 v 1 h -29 Z M 21 114 h 28 v 1 h -28 Z M 74 114 h 19 v 1 h -19 Z M 118 114 h 28 v 1 h -28 Z M 19 115 h 28 v 1 h -28 Z M 74 115 h 19 v 1 h -19 Z M 120 115 h 28 v 1 h -28 Z M 18 116 h 27 v 1 h -27 Z M 74 116 h 19 v 1 h -19 Z M 122 116 h 27 v 1 h -27 Z M 17 117 h 26 v 1 h -26 Z M 74 117 h 19 v 1 h -19 Z M 124 117 h 26 v 1 h -26 Z M 16 118 h 25 v 1 h -25 Z M 74 118 h 19 v 1 h -19 Z M 126 118 h 25 v 1 h -25 Z M 14 119 h 24 v 1 h -24 Z M 74 119 h 19 v 1 h -19 Z M 129 119 h 24 v 1 h -24 Z M 13 120 h 23 v 1 h -23 Z M 74 120 h 19 v 1 h -19 Z M 131 120 h 23 v 1 h -23 Z M 12 121 h 22 v 1 h -22 Z M 75 121 h 17 v 1 h -17 Z M 133 121 h 22 v 1 h -22 Z M 10 122 h 22 v 1 h -22 Z M 75 122 h 17 v 1 h -17 Z M 135 122 h 22 v 1 h -22 Z M 9 123 h 21 v 1 h -21 Z M 75 123 h 17 v 1 h -17 Z M 137 123 h 21 v 1 h -21 Z M 8 124 h 20 v 1 h -20 Z M 75 124 h 17 v 1 h -17 Z M 139 124 h 20 v 1 h -20 Z M 7 125 h 19 v 1 h -19 Z M 75 125 h 17 v 1 h -17 Z M 141 125 h 19 v 1 h -19 Z M 5 126 h 18 v 1 h -18 Z M 75 126 h 17 v 1 h -17 Z M 144 126 h 17 v 1 h -17 Z M 5 127 h 16 v 1 h -16 Z M 75 127 h 17 v 1 h -17 Z M 146 127 h 16 v 1 h -16 Z M 5 128 h 14 v 1 h -14 Z M 75 128 h 17 v 1 h -17 Z M 148 128 h 14 v 1 h -14 Z M 5 129 h 12 v 1 h -12 Z M 75 129 h 17 v 1 h -17 Z M 150 129 h 12 v 1 h -12 Z M 5 130 h 10 v 1 h -10 Z M 75 130 h 17 v 1 h -17 Z M 152 130 h 10 v 1 h -10 Z M 5 131 h 8 v 1 h -8 Z M 75 131 h 17 v 1 h -17 Z M 154 131 h 8 v 1 h -8 Z M 5 132 h 6 v 1 h -6 Z M 75 132 h 17 v 1 h -17 Z M 157 132 h 5 v 1 h -5 Z M 5 133 h 3 v 1 h -3 Z M 75 133 h 17 v 1 h -17 Z M 159 133 h 3 v 1 h -3 Z M 5 134 h 1 v 1 h -1 Z M 75 134 h 17 v 1 h -17 Z M 161 134 h 1 v 1 h -1 Z M 76 135 h 15 v 1 h -15 Z M 76 136 h 15 v 1 h -15 Z M 76 137 h 15 v 1 h -15 Z M 76 138 h 15 v 1 h -15 Z M 76 139 h 15 v 1 h -15 Z M 76 140 h 15 v 1 h -15 Z M 76 141 h 15 v 1 h -15 Z M 76 142 h 15 v 1 h -15 Z M 75 143 h 17 v 1 h -17 Z M 74 144 h 19 v 1 h -19 Z M 72 145 h 23 v 1 h -23 Z M 71 146 h 25 v 1 h -25 Z M 70 147 h 27 v 1 h -27 Z M 69 148 h 29 v 1 h -29 Z M 68 149 h 32 v 1 h -32 Z M 66 150 h 35 v 1 h -35 Z M 65 151 h 37 v 1 h -37 Z M 64 152 h 39 v 1 h -39 Z M 63 153 h 41 v 1 h -41 Z M 62 154 h 44 v 1 h -44 Z M 60 155 h 47 v 1 h -47 Z M 59 156 h 49 v 1 h -49 Z M 58 157 h 51 v 1 h -51 Z M 57 158 h 53 v 1 h -53 Z M 55 159 h 57 v 1 h -57 Z M 54 160 h 59 v 1 h -59 Z M 53 161 h 61 v 1 h -61 Z M 52 162 h 63 v 1 h -63 Z M 51 163 h 65 v 1 h -65 Z M 50 164 h 27 v 1 h -27 Z M 79 164 h 9 v 1 h -9 Z M 90 164 h 27 v 1 h -27 Z M 50 165 h 24 v 1 h -24 Z M 80 165 h 7 v 1 h -7 Z M 93 165 h 24 v 1 h -24 Z M 50 166 h 21 v 1 h -21 Z M 80 166 h 7 v 1 h -7 Z M 96 166 h 21 v 1 h -21 Z M 50 167 h 18 v 1 h -18 Z M 80 167 h 7 v 1 h -7 Z M 99 167 h 18 v 1 h -18 Z M 50 168 h 15 v 1 h -15 Z M 81 168 h 5 v 1 h -5 Z M 102 168 h 15 v 1 h -15 Z M 50 169 h 12 v 1 h -12 Z M 81 169 h 5 v 1 h -5 Z M 105 169 h 12 v 1 h -12 Z M 50 170 h 9 v 1 h -9 Z M 81 170 h 5 v 1 h -5 Z M 108 170 h 9 v 1 h -9 Z M 50 171 h 6 v 1 h -6 Z M 81 171 h 5 v 1 h -5 Z M 111 171 h 6 v 1 h -6 Z M 50 172 h 3 v 1 h -3 Z M 81 172 h 5 v 1 h -5 Z M 114 172 h 3 v 1 h -3 Z M 82 173 h 3 v 1 h -3 Z M 82 174 h 3 v 1 h -3 Z M 82 175 h 3 v 1 h -3 Z M 83 176 h 1 v 1 h -1 Z" fill="black"/>
</svg>