<svg xmlns="http://www.w3.org/2000/svg" viewBox="0 0 105 136" width="105" height="136">
  <title>Douglas DC-3</title>
  <path d="M 51 5 h 2 v 1 h -2 Z M 50 6 h 4 v 1 h -4 Z M 49 7 h 6 v 1 h -6 Z M 49 8 h 6 v 1 h -6 Z M 49 9 h 6 v 1 h -6 Z M 48 10 h 8 v 1 h -8 Z M 48 11 h 8 v 1 h -8 Z M 48 12 h 9 v 1 h -9 Z M 47 13 h 10 v 1 h -10 Z M 47 14 h 10 v 1 h -10 Z M 47 15 h 10 v 1 h -10 Z M 47 16 h 10 v 1 h -10 Z M 47 17 h 11 v 1 h -11 Z M 47 18 h 11 v 1 h -11 Z M 47 19 h 11 v 1 h -11 Z M 46 20 h 12 v 1 h -12 Z M 46 21 h 12 v 1 h -12 Z M 46 22 h 12 v 1 h -12 Z M 46 23 h 12 v 1 h -12 Z M 46 24 h 12 v 1 h -12 Z M 46 25 h 12 v 1 h -12 Z M 46 26 h 12 v 1 h -12 Z M 46 27 h 12 v 1 h -12 Z M 46 28 h 12 v 1 h -12 Z M 46 29 h 12 v 1 h -12 Z M 46 30 h 12 v 1 h -12 Z M 46 31 h 12 v 1 h -12 Z M 46 32 h 12 v 1 h -12 Z M 46 33 h 12 v 1 h -12 Z M 46 34 h 12 v 1 h -12 Z M 46 35 h 12 v 1 h -12 Z M 46 36 h 12 v 1 h -12 Z M 46 37 h 12 v 1 h -12 Z M 46 38 h 12 v 1 h -12 Z M 46 39 h 12 v 1 h -12 Z M 46 40 h 12 v 1 h -12 Z M 46 41 h 12 v 1 h -12 Z M 46 42 h 12 v 1 h -12 Z M 46 43 h 12 v 1 h -12 Z M 46 44 h 12 v 1 h -12 Z M 46 45 h 12 v 1 h -12 Z M 46 46 h 12 v 1 h -12 Z M 46 47 h 12 v 1 h -12 Z M 46 48 h 12 v 1 h -12 Z M 46 49 h 12 v 1 h -12 Z M 46 50 h 12 v 1 h -12 Z M 46 51 h 12 v 1 h -12 Z M 46 52 h 12 v 1 h -12 Z M 46 53 h 12 v 1 h -12 Z M 46 54 h 12 v 1 h -12 Z M 45 55 h 15 v 1 h -15 Z M 43 56 h 19 v 1 h -19 Z M 41 57 h 23 v 1 h -23 Z M 40 58 h 26 v 1 h -26 Z M 38 59 h 31 v 1 h -31 Z M 36 60 h 34 v 1 h -34 Z M 34 61 h 37 v 1 h -37 Z M 32 62 h 41 v 1 h -41 Z M 30 63 h 45 v 1 h -45 Z M 28 64 h 49 v 1 h -49 Z M 26 65 h 53 v 1 h -53 Z M 25 66 h 56 v 1 h -56 Z M 23 67 h 60 v 1 h -60 Z M 21 68 h 64 v 1 h -64 Z M 19 69 h 68 v 1 h -68 Z M 17 70 h 72 v 1 h -72 Z M 15 71 h 76 v 1 h -76 Z M 13 72 h 32 v 1 h -32 Z M 46 72 h 12 v 1 h -12 Z M 61 72 h 32 v 1 h -32 Z M 11 73 h 29 v 1 h -29 Z M 47 73 h 11 v 1 h -11 Z M 65 73 h 30 v 1 h -30 Z M 9 74 h 27 v 1 h -27 Z M 47 74 h 11 v 1 h -11 Z M 70 74 h 27 v 1 h -27 Z M 8 75 h 24 v 1 h -24 Z M 47 75 h 11 v 1 h -11 Z M 74 75 h 24 v 1 h -24 Z M 6 76 h 21 v 1 h -21 Z M 47 76 h 11 v 1 h -11 Z M 79 76 h 20 v 1 h -20 Z M 5 77 h 17 v 1 h -17 Z M 47 77 h 11 v 1 h -11 Z M 83 77 h 17 v 1 h -17 Z M 5 78 h 13 v 1 h -13 Z M 47 78 h 11 v 1 h -11 Z M 88 78 h 12 v 1 h -12 Z M 5 79 h 9 v 1 h -9 Z M 47 79 h 11 v 1 h -11 Z M 92 79 h 8 v 1 h -8 Z M 5 80 h 5 v 1 h -5 Z M 47 80 h 11 v 1 h -11 Z M 97 80 h 3 v 1 h -3 Z M 47 81 h 11 v 1 h -11 Z M 47 82 h 11 v 1 h -11 Z M 47 83 h 11 v 1 h -11 Z M 47 84 h 11 v 1 h -11 Z M 61 84 h 3 v 1 h -3 Z M 41 85 h 4 v 1 h -4 Z M 47 85 h 11 v 1 h -11 Z M 60 85 h 4 v 1 h -4 Z M 41 86 h 4 v 1 h -4 Z M 46 86 h 19 v 1 h -19 Z M 40 87 h 25 v 1 h -25 Z M 40 88 h 25 v 1 h -25 Z M 40 89 h 25 v 1 h -25 Z M 40 90 h 25 v 1 h -25 Z M 40 91 h 25 v 1 h -25 Z M 40 92 h 25 v 1 h -25 Z M 40 93 h 25 v 1 h -25 Z M 41 94 h 24 v 1 h -24 Z M 41 95 h 24 v 1 h -24 Z M 41 96 h 24 v 1 h -24 Z M 41 97 h 23 v 1 h -23 Z M 41 98 h 23 v 1 h -23 Z M 41 99 h 23 v 1 h -23 Z M 41 100 h 23 v 1 h -23 Z M 41 101 h 23 v 1 h -23 Z M 41 102 h 23 v 1 h -23 Z M 47 103 h 11 v 1 h -11 Z M 48 104 h 9 v 1 h -9 Z M 49 105 h 7 v 1 h -7 Z M 49 106 h 7 v 1 h -7 Z M 49 107 h 7 v 1 h -7 Z M 50 108 h 6 v 1 h -6 Z M 50 109 h 5 v 1 h -5 Z M 50 110 h 5 v 1 h -5 Z M 50 111 h 5 v 1 h -5 Z M 51 112 h 4 v 1 h -4 Z M 50 113 h 5 v 1 h -5 Z M 49 114 h 7 v 1 h -7 Z M 48 115 h 9 v 1 h -9 Z M 46 116 h 13 v 1 h -13 Z M 45 117 h 15 v 1 h -15 Z M 43 118 h 19 v 1 h -19 Z M 42 119 h 21 v 1 h -21 Z M 40 120 h 25 v 1 h -25 Z M 38 121 h 28 v 1 h -28 Z M 37 122 h 31 v 1 h -31 Z M 36 123 h 33 v 1 h -33 Z M 34 124 h 37 v 1 h -37 Z M 33 125 h 39 v 1 h -39 Z M 32 126 h 17 v 1 h -17 Z M 52 126 h 1 v 1 h -1 Z M 57 126 h 16 v 1 h -16 Z M 32 127 h 13 v 1 h -13 Z M 61 127 h 12 v 1 h -12 Z M 32 128 h 9 v 1 h -9 Z M 64 128 h 9 v 1 h -9 Z M 32 129 h 6 v 1 h -6 Z M 68 129 h 5 v 1 h -5 Z M 32 130 h 2 v 1 h -2 Z M 72 130 h 1 v 1 h -1 Z" fill="black"/>
</svg>