<svg xmlns="http://www.w3.org/2000/svg" viewBox="0 0 180 217" width="180" height="217">
  <title>Douglas DC-10</title>
  <path d="M 88 5 h 3 v 1 h -3 Z M 87 6 h 5 v 1 h -5 Z M 86 7 h 6 v 1 h -6 Z M 86 8 h 7 v 1 h -7 Z M 85 9 h 8 v 1 h -8 Z M 85 10 h 9 v 1 h -9 Z M 84 11 h 10 v 1 h -10 Z M 84 12 h 11 v 1 h -11 Z M 83 13 h 12 v 1 h -12 Z M 83 14 h 13 v 1 h -13 Z M 83 15 h 13 v 1 h -13 Z M 82 16 h 14 v 1 h -14 Z M 82 17 h 15 v 1 h -15 Z M 82 18 h 15 v 1 h -15 Z M 82 19 h 15 v 1 h -15 Z M 81 20 h 16 v 1 h -16 Z M 81 21 h 17 v 1 h -17 Z M 81 22 h 17 v 1 h -17 Z M 81 23 h 17 v 1 h -17 Z M 81 24 h 17 v 1 h -17 Z M 81 25 h 17 v 1 h -17 Z M 81 26 h 17 v 1 h -17 Z M 81 27 h 18 v 1 h -18 Z M 81 28 h 18 v 1 h -18 Z M 80 29 h 19 v 1 h -19 Z M 80 30 h 19 v 1 h -19 Z M 80 31 h 19 v 1 h -19 Z M 80 32 h 19 v 1 h -19 Z M 80 33 h 19 v 1 h -19 Z M 80 34 h 19 v 1 h -19 Z M 80 35 h 19 v 1 h -19 Z M 80 36 h 19 v 1 h -19 Z M 80 37 h 19 v 1 h -19 Z M 80 38 h 19 v 1 h -19 Z M 80 39 h 19 v 1 h -19 Z M 80 40 h 19 v 1 h -19 Z M 80 41 h 19 v 1 h -19 Z M 80 42 h 19 v 1 h -19 Z M 80 43 h 19 v 1 h -19 Z M 80 44 h 19 v 1 h -19 Z M 80 45 h 19 v 1 h -19 Z M 80 46 h 19 v 1 h -19 Z M 80 47 h 19 v 1 h -19 Z M 80 48 h 19 v 1 h -19 Z M 80 49 h 19 v 1 h -19 Z M 80 50 h 19 v 1 h -19 Z M 80 51 h 19 v 1 h -19 Z M 80 52 h 19 v 1 h -19 Z M 80 53 h 19 v 1 h -19 Z M 80 54 h 19 v 1 h -19 Z M 80 55 h 19 v 1 h -19 Z M 80 56 h 19 v 1 h -19 Z M 80 57 h 19 v 1 h -19 Z M 80 58 h 19 v 1 h -19 Z M 80 59 h 19 v 1 h -19 Z M 80 60 h 19 v 1 h -19 Z M 80 61 h 19 v 1 h -19 Z M 80 62 h 19 v 1 h -19 Z M 80 63 h 19 v 1 h -19 Z M 80 64 h 19 v 1 h -19 Z M 80 65 h 19 v 1 h -19 Z M 80 66 h 19 v 1 h -19 Z M 80 67 h 20 v 1 h -20 Z M 80 68 h 20 v 1 h -20 Z M 80 69 h 20 v 1 h -20 Z M 80 70 h 20 v 1 h -20 Z M 80 71 h 20 v 1 h -20 Z M 80 72 h 20 v 1 h -20 Z M 80 73 h 20 v 1 h -20 Z M 80 74 h 20 v 1 h -20 Z M 80 75 h 20 v 1 h -20 Z M 80 76 h 20 v 1 h -20 Z M 80 77 h 20 v 1 h -20 Z M 80 78 h 20 v 1 h -20 Z M 80 79 h 20 v 1 h -20 Z M 80 80 h 20 v 1 h -20 Z M 80 81 h 20 v 1 h -20 Z M 80 82 h 20 v 1 h -20 Z M 80 83 h 20 v 1 h -20 Z M 60 84 h 2 v 1 h -2 Z M 63 84 h 1 v 1 h -1 Z M 79 84 h 21 v 1 h -21 Z M 117 84 h 1 v 1 h -1 Z M 58 85 h 8 v 1 h -8 Z M 79 85 h 21 v 1 h -21 Z M 112 85 h 8 v 1 h -8 Z M 58 86 h 9 v 1 h -9 Z M 79 86 h 21 v 1 h -21 Z M 112 86 h 9 v 1 h -9 Z M 58 87 h 9 v 1 h -9 Z M 79 87 h 21 v 1 h -21 Z M 112 87 h 9 v 1 h -9 Z M 58 88 h 9 v 1 h -9 Z M 79 88 h 22 v 1 h -22 Z M 112 88 h 9 v 1 h -9 Z M 58 89 h 9 v 1 h -9 Z M 78 89 h 24 v 1 h -24 Z M 112 89 h 9 v 1 h -9 Z M 58 90 h 9 v 1 h -9 Z M 77 90 h 25 v 1 h -25 Z M 112 90 h 9 v 1 h -9 Z M 58 91 h 9 v 1 h -9 Z M 76 91 h 28 v 1 h -28 Z M 112 91 h 9 v 1 h -9 Z M 58 92 h 9 v 1 h -9 Z M 75 92 h 30 v 1 h -30 Z M 112 92 h 9 v 1 h -9 Z M 58 93 h 9 v 1 h -9 Z M 74 93 h 32 v 1 h -32 Z M 112 93 h 9 v 1 h -9 Z M 58 94 h 9 v 1 h -9 Z M 72 94 h 35 v 1 h -35 Z M 112 94 h 9 v 1 h -9 Z M 58 95 h 9 v 1 h -9 Z M 71 95 h 38 v 1 h -38 Z M 112 95 h 9 v 1 h -9 Z M 58 96 h 9 v 1 h -9 Z M 70 96 h 40 v 1 h -40 Z M 113 96 h 8 v 1 h -8 Z M 58 97 h 9 v 1 h -9 Z M 69 97 h 42 v 1 h -42 Z M 113 97 h 8 v 1 h -8 Z M 59 98 h 62 v 1 h -62 Z M 59 99 h 61 v 1 h -61 Z M 59 100 h 61 v 1 h -61 Z M 60 101 h 60 v 1 h -60 Z M 60 102 h 60 v 1 h -60 Z M 60 103 h 59 v 1 h -59 Z M 60 104 h 60 v 1 h -60 Z M 59 105 h 62 v 1 h -62 Z M 58 106 h 64 v 1 h -64 Z M 56 107 h 68 v 1 h -68 Z M 55 108 h 70 v 1 h -70 Z M 54 109 h 72 v 1 h -72 Z M 53 110 h 74 v 1 h -74 Z M 51 111 h 77 v 1 h -77 Z M 50 112 h 80 v 1 h -80 Z M 49 113 h 82 v 1 h -82 Z M 48 114 h 84 v 1 h -84 Z M 46 115 h 88 v 1 h -88 Z M 45 116 h 90 v 1 h -90 Z M 44 117 h 92 v 1 h -92 Z M 42 118 h 95 v 1 h -95 Z M 41 119 h 98 v 1 h -98 Z M 40 120 h 100 v 1 h -100 Z M 38 121 h 103 v 1 h -103 Z M 37 122 h 105 v 1 h -105 Z M 36 123 h 108 v 1 h -108 Z M 35 124 h 110 v 1 h -110 Z M 33 125 h 113 v 1 h -113 Z M 32 126 h 116 v 1 h -116 Z M 31 127 h 118 v 1 h -118 Z M 30 128 h 120 v 1 h -120 Z M 28 129 h 45 v 1 h -45 Z M 80 129 h 20 v 1 h -20 Z M 109 129 h 42 v 1 h -42 Z M 27 130 h 37 v 1 h -37 Z M 80 130 h 20 v 1 h -20 Z M 116 130 h 37 v 1 h -37 Z M 26 131 h 33 v 1 h -33 Z M 80 131 h 20 v 1 h -20 Z M 120 131 h 34 v 1 h -34 Z M 25 132 h 31 v 1 h -31 Z M 80 132 h 20 v 1 h -20 Z M 123 132 h 32 v 1 h -32 Z M 23 133 h 31 v 1 h -31 Z M 80 133 h 20 v 1 h -20 Z M 125 133 h 32 v 1 h -32 Z M 22 134 h 30 v 1 h -30 Z M 80 134 h 20 v 1 h -20 Z M 127 134 h 31 v 1 h -31 Z M 21 135 h 28 v 1 h -28 Z M 80 135 h 20 v 1 h -20 Z M 130 135 h 29 v 1 h -29 Z M 19 136 h 28 v 1 h -28 Z M 80 136 h 20 v 1 h -20 Z M 132 136 h 29 v 1 h -29 Z M 18 137 h 27 v 1 h -27 Z M 80 137 h 20 v 1 h -20 Z M 134 137 h 28 v 1 h -28 Z M 17 138 h 26 v 1 h -26 Z M 80 138 h 20 v 1 h -20 Z M 136 138 h 27 v 1 h -27 Z M 16 139 h 25 v 1 h -25 Z M 80 139 h 20 v 1 h -20 Z M 139 139 h 25 v 1 h -25 Z M 14 140 h 25 v 1 h -25 Z M 80 140 h 20 v 1 h -20 Z M 141 140 h 25 v 1 h -25 Z M 13 141 h 24 v 1 h -24 Z M 80 141 h 20 v 1 h -20 Z M 143 141 h 24 v 1 h -24 Z M 12 142 h 23 v 1 h -23 Z M 80 142 h 20 v 1 h -20 Z M 145 142 h 23 v 1 h -23 Z M 11 143 h 22 v 1 h -22 Z M 80 143 h 20 v 1 h -20 Z M 147 143 h 23 v 1 h -23 Z M 9 144 h 21 v 1 h -21 Z M 80 144 h 20 v 1 h -20 Z M 149 144 h 22 v 1 h -22 Z M 8 145 h 20 v 1 h -20 Z M 80 145 h 20 v 1 h -20 Z M 151 145 h 21 v 1 h -21 Z M 8 146 h 18 v 1 h -18 Z M 80 146 h 20 v 1 h -20 Z M 153 146 h 19 v 1 h -19 Z M 7 147 h 17 v 1 h -17 Z M 80 147 h 20 v 1 h -20 Z M 156 147 h 17 v 1 h -17 Z M 7 148 h 14 v 1 h -14 Z M 80 148 h 20 v 1 h -20 Z M 158 148 h 15 v 1 h -15 Z M 7 149 h 12 v 1 h -12 Z M 80 149 h 20 v 1 h -20 Z M 160 149 h 13 v 1 h -13 Z M 7 150 h 10 v 1 h -10 Z M 80 150 h 20 v 1 h -20 Z M 162 150 h 12 v 1 h -12 Z M 6 151 h 9 v 1 h -9 Z M 80 151 h 20 v 1 h -20 Z M 164 151 h 10 v 1 h -10 Z M 6 152 h 7 v 1 h -7 Z M 80 152 h 19 v 1 h -19 Z M 166 152 h 8 v 1 h -8 Z M 6 153 h 5 v 1 h -5 Z M 80 153 h 19 v 1 h -19 Z M 168 153 h 7 v 1 h -7 Z M 5 154 h 5 v 1 h -5 Z M 80 154 h 19 v 1 h -19 Z M 171 154 h 4 v 1 h -4 Z M 5 155 h 3 v 1 h -3 Z M 80 155 h 19 v 1 h -19 Z M 172 155 h 3 v 1 h -3 Z M 5 156 h 2 v 1 h -2 Z M 80 156 h 19 v 1 h -19 Z M 174 156 h 1 v 1 h -1 Z M 80 157 h 19 v 1 h -19 Z M 80 158 h 19 v 1 h -19 Z M 80 159 h 19 v 1 h -19 Z M 81 160 h 18 v 1 h -18 Z M 81 161 h 18 v 1 h -18 Z M 81 162 h 18 v 1 h -18 Z M 81 163 h 18 v 1 h -18 Z M 81 164 h 18 v 1 h -18 Z M 81 165 h 17 v 1 h -17 Z M 81 166 h 17 v 1 h -17 Z M 82 167 h 16 v 1 h -16 Z M 82 168 h 16 v 1 h -16 Z M 82 169 h 16 v 1 h -16 Z M 82 170 h 16 v 1 h -16 Z M 82 171 h 16 v 1 h -16 Z M 83 172 h 14 v 1 h -14 Z M 83 173 h 14 v 1 h -14 Z M 82 174 h 16 v 1 h -16 Z M 81 175 h 18 v 1 h -18 Z M 80 176 h 20 v 1 h -20 Z M 79 177 h 22 v 1 h -22 Z M 78 178 h 24 v 1 h -24 Z M 77 179 h 26 v 1 h -26 Z M 76 180 h 28 v 1 h -28 Z M 75 181 h 31 v 1 h -31 Z M 74 182 h 33 v 1 h -33 Z M 73 183 h 35 v 1 h -35 Z M 71 184 h 38 v 1 h -38 Z M 70 185 h 40 v 1 h -40 Z M 69 186 h 43 v 1 h -43 Z M 68 187 h 45 v 1 h -45 Z M 67 188 h 47 v 1 h -47 Z M 66 189 h 49 v 1 h -49 Z M 64 190 h 52 v 1 h -52 Z M 63 191 h 54 v 1 h -54 Z M 62 192 h 56 v 1 h -56 Z M 61 193 h 58 v 1 h -58 Z M 61 194 h 34 v 1 h -34 Z M 96 194 h 23 v 1 h -23 Z M 61 195 h 21 v 1 h -21 Z M 85 195 h 10 v 1 h -10 Z M 99 195 h 20 v 1 h -20 Z M 61 196 h 17 v 1 h -17 Z M 85 196 h 10 v 1 h -10 Z M 102 196 h 17 v 1 h -17 Z M 61 197 h 15 v 1 h -15 Z M 85 197 h 10 v 1 h -10 Z M 105 197 h 14 v 1 h -14 Z M 61 198 h 12 v 1 h -12 Z M 85 198 h 10 v 1 h -10 Z M 108 198 h 11 v 1 h -11 Z M 61 199 h 8 v 1 h -8 Z M 85 199 h 10 v 1 h -10 Z M 111 199 h 8 v 1 h -8 Z M 61 200 h 5 v 1 h -5 Z M 86 200 h 9 v 1 h -9 Z M 114 200 h 5 v 1 h -5 Z M 61 201 h 1 v 1 h -1 Z M 87 201 h 7 v 1 h -7 Z M 118 201 h 1 v 1 h -1 Z M 87 202 h 7 v 1 h -7 Z M 87 203 h 7 v 1 h -7 Z M 87 204 h 6 v 1 h -6 Z M 87 205 h 6 v 1 h -6 Z M 89 206 h 3 v 1 h -3 Z M 89 207 h 3 v 1 h -3 Z M 89 208 h 2 v 1 h -2 Z M 89 209 h 2 v 1 h -2 Z M 89 210 h 2 v 1 h -2 Z M 90 211 h 1 v 1 h -1 Z" fill="black"/>
</svg>