<svg xmlns="http://www.w3.org/2000/svg" viewBox="0 0 109 76" width="109" height="76">
  <title>Learjet 45</title>
  <path d="M 53 5 h 3 v 1 h -3 Z M 52 6 h 5 v 1 h -5 Z M 52 7 h 5 v 1 h -5 Z M 52 8 h 5 v 1 h -5 Z M 51 9 h 7 v 1 h -7 Z M 51 10 h 7 v 1 h -7 Z M 51 11 h 7 v 1 h -7 Z M 51 12 h 7 v 1 h -7 Z M 51 13 h 7 v 1 h -7 Z M 64 13 h 1 v 1 h -1 Z M 43 14 h 3 v 1 h -3 Z M 51 14 h 7 v 1 h -7 Z M 63 14 h 3 v 1 h -3 Z M 43 15 h 4 v 1 h -4 Z M 51 15 h 7 v 1 h -7 Z M 62 15 h 4 v 1 h -4 Z M 42 16 h 5 v 1 h -5 Z M 50 16 h 9 v 1 h -9 Z M 62 16 h 5 v 1 h -5 Z M 42 17 h 5 v 1 h -5 Z M 50 17 h 9 v 1 h -9 Z M 62 17 h 5 v 1 h -5 Z M 42 18 h 5 v 1 h -5 Z M 50 18 h 9 v 1 h -9 Z M 62 18 h 5 v 1 h -5 Z M 42 19 h 5 v 1 h -5 Z M 50 19 h 9 v 1 h -9 Z M 62 19 h 5 v 1 h -5 Z M 42 20 h 6 v 1 h -6 Z M 49 20 h 10 v 1 h -10 Z M 61 20 h 6 v 1 h -6 Z M 39 21 h 31 v 1 h -31 Z M 36 22 h 37 v 1 h -37 Z M 32 23 h 45 v 1 h -45 Z M 28 24 h 53 v 1 h -53 Z M 25 25 h 60 v 1 h -60 Z M 21 26 h 67 v 1 h -67 Z M 17 27 h 75 v 1 h -75 Z M 14 28 h 81 v 1 h -81 Z M 10 29 h 89 v 1 h -89 Z M 7 30 h 95 v 1 h -95 Z M 5 31 h 99 v 1 h -99 Z M 5 32 h 99 v 1 h -99 Z M 5 33 h 99 v 1 h -99 Z M 5 34 h 99 v 1 h -99 Z M 8 35 h 93 v 1 h -93 Z M 50 36 h 9 v 1 h -9 Z M 50 37 h 9 v 1 h -9 Z M 50 38 h 9 v 1 h -9 Z M 50 39 h 9 v 1 h -9 Z M 50 40 h 9 v 1 h -9 Z M 50 41 h 9 v 1 h -9 Z M 50 42 h 9 v 1 h -9 Z M 50 43 h 9 v 1 h -9 Z M 51 44 h 7 v 1 h -7 Z M 51 45 h 7 v 1 h -7 Z M 51 46 h 7 v 1 h -7 Z M 51 47 h 7 v 1 h -7 Z M 51 48 h 7 v 1 h -7 Z M 51 49 h 7 v 1 h -7 Z M 51 50 h 7 v 1 h -7 Z M 51 51 h 7 v 1 h -7 Z M 51 52 h 7 v 1 h -7 Z M 51 53 h 6 v 1 h -6 Z M 52 54 h 5 v 1 h -5 Z M 52 55 h 5 v 1 h -5 Z M 52 56 h 5 v 1 h -5 Z M 52 57 h 5 v 1 h -5 Z M 52 58 h 5 v 1 h -5 Z M 52 59 h 5 v 1 h -5 Z M 51 60 h 7 v 1 h -7 Z M 49 61 h 11 v 1 h -11 Z M 47 62 h 15 v 1 h -15 Z M 45 63 h 19 v 1 h -19 Z M 43 64 h 24 v 1 h -24 Z M 41 65 h 27 v 1 h -27 Z M 41 66 h 27 v 1 h -27 Z M 40 67 h 29 v 1 h -29 Z M 41 68 h 27 v 1 h -27 Z M 41 69 h 27 v 1 h -27 Z M 43 70 h 8 v 1 h -8 Z M 54 70 h 1 v 1 h -1 Z M 58 70 h 8 v 1 h -8 Z" fill="black"/>
</svg>