<svg xmlns="http://www.w3.org/2000/svg" viewBox="0 0 283 262" width="283" height="262">
  <title>Airbus A380</title>
  <path d="M 140 5 h 3 v 1 h -3 Z M 139 6 h 6 v 1 h -6 Z M 138 7 h 8 v 1 h -8 Z M 137 8 h 9 v 1 h -9 Z M 136 9 h 11 v 1 h -11 Z M 136 10 h 11 v 1 h -11 Z M 135 11 h 13 v 1 h -13 Z M 135 12 h 13 v 1 h -13 Z M 135 13 h 14 v 1 h -14 Z M 134 14 h 15 v 1 h -15 Z M 134 15 h 16 v 1 h -16 Z M 133 16 h 17 v 1 h -17 Z M 133 17 h 17 v 1 h -17 Z M 133 18 h 18 v 1 h -18 Z M 132 19 h 19 v 1 h -19 Z M 132 20 h 19 v 1 h -19 Z M 132 21 h 20 v 1 h -20 Z M 132 22 h 20 v 1 h -20 Z M 131 23 h 21 v 1 h -21 Z M 131 24 h 21 v 1 h -21 Z M 131 25 h 21 v 1 h -21 Z M 131 26 h 22 v 1 h -22 Z M 131 27 h 22 v 1 h -22 Z M 130 28 h 23 v 1 h -23 Z M 130 29 h 23 v 1 h -23 Z M 130 30 h 23 v 1 h -23 Z M 130 31 h 23 v 1 h -23 Z M 130 32 h 24 v 1 h -24 Z M 130 33 h 24 v 1 h -24 Z M 130 34 h 24 v 1 h -24 Z M 130 35 h 24 v 1 h -24 Z M 130 36 h 24 v 1 h -24 Z M 130 37 h 24 v 1 h -24 Z M 129 38 h 25 v 1 h -25 Z M 129 39 h 25 v 1 h -25 Z M 129 40 h 25 v 1 h -25 Z M 129 41 h 25 v 1 h -25 Z M 129 42 h 25 v 1 h -25 Z M 129 43 h 25 v 1 h -25 Z M 129 44 h 25 v 1 h -25 Z M 129 45 h 25 v 1 h -25 Z M 129 46 h 25 v 1 h -25 Z M 129 47 h 25 v 1 h -25 Z M 129 48 h 25 v 1 h -25 Z M 129 49 h 25 v 1 h -25 Z M 129 50 h 25 v 1 h -25 Z M 129 51 h 25 v 1 h -25 Z M 129 52 h 25 v 1 h -25 Z M 129 53 h 25 v 1 h -25 Z M 129 54 h 25 v 1 h -25 Z M 129 55 h 25 v 1 h -25 Z M 129 56 h 25 v 1 h -25 Z M 129 57 h 25 v 1 h -25 Z M 129 58 h 25 v 1 h -25 Z M 129 59 h 25 v 1 h -25 Z M 129 60 h 25 v 1 h -25 Z M 129 61 h 25 v 1 h -25 Z M 129 62 h 25 v 1 h -25 Z M 129 63 h 25 v 1 h -25 Z M 129 64 h 25 v 1 h -25 Z M 129 65 h 25 v 1 h -25 Z M 129 66 h 25 v 1 h -25 Z M 129 67 h 25 v 1 h -25 Z M 129 68 h 25 v 1 h -25 Z M 129 69 h 25 v 1 h -25 Z M 129 70 h 25 v 1 h -25 Z M 129 71 h 25 v 1 h -25 Z M 129 72 h 25 v 1 h -25 Z M 129 73 h 26 v 1 h -26 Z M 128 74 h 27 v 1 h -27 Z M 128 75 h 27 v 1 h -27 Z M 128 76 h 28 v 1 h -28 Z M 127 77 h 29 v 1 h -29 Z M 126 78 h 31 v 1 h -31 Z M 126 79 h 32 v 1 h -32 Z M 125 80 h 33 v 1 h -33 Z M 124 81 h 35 v 1 h -35 Z M 123 82 h 38 v 1 h -38 Z M 121 83 h 41 v 1 h -41 Z M 120 84 h 43 v 1 h -43 Z M 119 85 h 45 v 1 h -45 Z M 118 86 h 47 v 1 h -47 Z M 117 87 h 50 v 1 h -50 Z M 115 88 h 53 v 1 h -53 Z M 114 89 h 55 v 1 h -55 Z M 113 90 h 57 v 1 h -57 Z M 84 91 h 7 v 1 h -7 Z M 112 91 h 60 v 1 h -60 Z M 192 91 h 7 v 1 h -7 Z M 82 92 h 10 v 1 h -10 Z M 111 92 h 62 v 1 h -62 Z M 191 92 h 10 v 1 h -10 Z M 82 93 h 11 v 1 h -11 Z M 109 93 h 65 v 1 h -65 Z M 191 93 h 10 v 1 h -10 Z M 82 94 h 11 v 1 h -11 Z M 108 94 h 67 v 1 h -67 Z M 191 94 h 10 v 1 h -10 Z M 82 95 h 11 v 1 h -11 Z M 107 95 h 69 v 1 h -69 Z M 190 95 h 11 v 1 h -11 Z M 82 96 h 11 v 1 h -11 Z M 106 96 h 72 v 1 h -72 Z M 190 96 h 11 v 1 h -11 Z M 82 97 h 11 v 1 h -11 Z M 105 97 h 74 v 1 h -74 Z M 190 97 h 12 v 1 h -12 Z M 82 98 h 11 v 1 h -11 Z M 103 98 h 77 v 1 h -77 Z M 190 98 h 12 v 1 h -12 Z M 82 99 h 11 v 1 h -11 Z M 102 99 h 79 v 1 h -79 Z M 190 99 h 12 v 1 h -12 Z M 82 100 h 11 v 1 h -11 Z M 101 100 h 82 v 1 h -82 Z M 190 100 h 12 v 1 h -12 Z M 82 101 h 11 v 1 h -11 Z M 100 101 h 84 v 1 h -84 Z M 190 101 h 12 v 1 h -12 Z M 82 102 h 11 v 1 h -11 Z M 98 102 h 87 v 1 h -87 Z M 190 102 h 12 v 1 h -12 Z M 82 103 h 11 v 1 h -11 Z M 97 103 h 89 v 1 h -89 Z M 190 103 h 12 v 1 h -12 Z M 82 104 h 11 v 1 h -11 Z M 96 104 h 92 v 1 h -92 Z M 190 104 h 11 v 1 h -11 Z M 82 105 h 11 v 1 h -11 Z M 95 105 h 94 v 1 h -94 Z M 190 105 h 11 v 1 h -11 Z M 82 106 h 119 v 1 h -119 Z M 82 107 h 119 v 1 h -119 Z M 82 108 h 119 v 1 h -119 Z M 82 109 h 119 v 1 h -119 Z M 82 110 h 119 v 1 h -119 Z M 83 111 h 117 v 1 h -117 Z M 84 112 h 116 v 1 h -116 Z M 84 113 h 115 v 1 h -115 Z M 83 114 h 117 v 1 h -117 Z M 82 115 h 120 v 1 h -120 Z M 81 116 h 122 v 1 h -122 Z M 79 117 h 125 v 1 h -125 Z M 47 118 h 10 v 1 h -10 Z M 78 118 h 128 v 1 h -128 Z M 226 118 h 10 v 1 h -10 Z M 47 119 h 10 v 1 h -10 Z M 76 119 h 131 v 1 h -131 Z M 226 119 h 10 v 1 h -10 Z M 47 120 h 10 v 1 h -10 Z M 75 120 h 133 v 1 h -133 Z M 226 120 h 11 v 1 h -11 Z M 47 121 h 11 v 1 h -11 Z M 74 121 h 136 v 1 h -136 Z M 226 121 h 11 v 1 h -11 Z M 47 122 h 11 v 1 h -11 Z M 73 122 h 138 v 1 h -138 Z M 226 122 h 11 v 1 h -11 Z M 47 123 h 11 v 1 h -11 Z M 71 123 h 141 v 1 h -141 Z M 226 123 h 11 v 1 h -11 Z M 47 124 h 11 v 1 h -11 Z M 70 124 h 144 v 1 h -144 Z M 226 124 h 11 v 1 h -11 Z M 46 125 h 12 v 1 h -12 Z M 69 125 h 146 v 1 h -146 Z M 226 125 h 11 v 1 h -11 Z M 46 126 h 12 v 1 h -12 Z M 67 126 h 149 v 1 h -149 Z M 226 126 h 11 v 1 h -11 Z M 46 127 h 12 v 1 h -12 Z M 66 127 h 152 v 1 h -152 Z M 226 127 h 11 v 1 h -11 Z M 46 128 h 12 v 1 h -12 Z M 65 128 h 154 v 1 h -154 Z M 226 128 h 11 v 1 h -11 Z M 46 129 h 12 v 1 h -12 Z M 63 129 h 157 v 1 h -157 Z M 226 129 h 11 v 1 h -11 Z M 46 130 h 12 v 1 h -12 Z M 62 130 h 160 v 1 h -160 Z M 226 130 h 11 v 1 h -11 Z M 47 131 h 11 v 1 h -11 Z M 60 131 h 163 v 1 h -163 Z M 226 131 h 11 v 1 h -11 Z M 47 132 h 11 v 1 h -11 Z M 59 132 h 165 v 1 h -165 Z M 226 132 h 11 v 1 h -11 Z M 47 133 h 190 v 1 h -190 Z M 47 134 h 190 v 1 h -190 Z M 47 135 h 189 v 1 h -189 Z M 47 136 h 189 v 1 h -189 Z M 48 137 h 188 v 1 h -188 Z M 48 138 h 187 v 1 h -187 Z M 49 139 h 186 v 1 h -186 Z M 48 140 h 187 v 1 h -187 Z M 47 141 h 189 v 1 h -189 Z M 46 142 h 192 v 1 h -192 Z M 44 143 h 195 v 1 h -195 Z M 43 144 h 79 v 1 h -79 Z M 127 144 h 30 v 1 h -30 Z M 161 144 h 79 v 1 h -79 Z M 42 145 h 75 v 1 h -75 Z M 127 145 h 30 v 1 h -30 Z M 166 145 h 76 v 1 h -76 Z M 40 146 h 72 v 1 h -72 Z M 127 146 h 30 v 1 h -30 Z M 170 146 h 73 v 1 h -73 Z M 39 147 h 72 v 1 h -72 Z M 127 147 h 29 v 1 h -29 Z M 172 147 h 72 v 1 h -72 Z M 38 148 h 65 v 1 h -65 Z M 108 148 h 3 v 1 h -3 Z M 127 148 h 29 v 1 h -29 Z M 172 148 h 3 v 1 h -3 Z M 180 148 h 66 v 1 h -66 Z M 36 149 h 63 v 1 h -63 Z M 109 149 h 2 v 1 h -2 Z M 127 149 h 29 v 1 h -29 Z M 173 149 h 2 v 1 h -2 Z M 185 149 h 62 v 1 h -62 Z M 35 150 h 62 v 1 h -62 Z M 109 150 h 2 v 1 h -2 Z M 127 150 h 29 v 1 h -29 Z M 173 150 h 2 v 1 h -2 Z M 186 150 h 62 v 1 h -62 Z M 34 151 h 63 v 1 h -63 Z M 109 151 h 1 v 1 h -1 Z M 127 151 h 29 v 1 h -29 Z M 173 151 h 1 v 1 h -1 Z M 187 151 h 63 v 1 h -63 Z M 32 152 h 59 v 1 h -59 Z M 94 152 h 3 v 1 h -3 Z M 109 152 h 1 v 1 h -1 Z M 127 152 h 29 v 1 h -29 Z M 187 152 h 3 v 1 h -3 Z M 193 152 h 58 v 1 h -58 Z M 31 153 h 57 v 1 h -57 Z M 94 153 h 2 v 1 h -2 Z M 128 153 h 28 v 1 h -28 Z M 187 153 h 2 v 1 h -2 Z M 196 153 h 56 v 1 h -56 Z M 30 154 h 55 v 1 h -55 Z M 94 154 h 2 v 1 h -2 Z M 128 154 h 28 v 1 h -28 Z M 187 154 h 2 v 1 h -2 Z M 198 154 h 56 v 1 h -56 Z M 28 155 h 55 v 1 h -55 Z M 95 155 h 1 v 1 h -1 Z M 128 155 h 28 v 1 h -28 Z M 187 155 h 2 v 1 h -2 Z M 200 155 h 55 v 1 h -55 Z M 27 156 h 55 v 1 h -55 Z M 128 156 h 27 v 1 h -27 Z M 201 156 h 55 v 1 h -55 Z M 26 157 h 51 v 1 h -51 Z M 79 157 h 3 v 1 h -3 Z M 128 157 h 27 v 1 h -27 Z M 201 157 h 3 v 1 h -3 Z M 206 157 h 52 v 1 h -52 Z M 24 158 h 51 v 1 h -51 Z M 79 158 h 3 v 1 h -3 Z M 128 158 h 27 v 1 h -27 Z M 201 158 h 3 v 1 h -3 Z M 209 158 h 50 v 1 h -50 Z M 23 159 h 49 v 1 h -49 Z M 79 159 h 3 v 1 h -3 Z M 128 159 h 27 v 1 h -27 Z M 201 159 h 3 v 1 h -3 Z M 212 159 h 48 v 1 h -48 Z M 22 160 h 47 v 1 h -47 Z M 80 160 h 2 v 1 h -2 Z M 128 160 h 27 v 1 h -27 Z M 201 160 h 3 v 1 h -3 Z M 214 160 h 48 v 1 h -48 Z M 20 161 h 48 v 1 h -48 Z M 80 161 h 2 v 1 h -2 Z M 128 161 h 27 v 1 h -27 Z M 201 161 h 3 v 1 h -3 Z M 215 161 h 48 v 1 h -48 Z M 19 162 h 49 v 1 h -49 Z M 80 162 h 2 v 1 h -2 Z M 129 162 h 26 v 1 h -26 Z M 202 162 h 1 v 1 h -1 Z M 215 162 h 49 v 1 h -49 Z M 18 163 h 43 v 1 h -43 Z M 65 163 h 3 v 1 h -3 Z M 80 163 h 1 v 1 h -1 Z M 129 163 h 26 v 1 h -26 Z M 202 163 h 1 v 1 h -1 Z M 215 163 h 3 v 1 h -3 Z M 222 163 h 44 v 1 h -44 Z M 16 164 h 43 v 1 h -43 Z M 65 164 h 3 v 1 h -3 Z M 129 164 h 26 v 1 h -26 Z M 216 164 h 2 v 1 h -2 Z M 225 164 h 42 v 1 h -42 Z M 15 165 h 41 v 1 h -41 Z M 65 165 h 3 v 1 h -3 Z M 129 165 h 25 v 1 h -25 Z M 216 165 h 2 v 1 h -2 Z M 228 165 h 40 v 1 h -40 Z M 14 166 h 40 v 1 h -40 Z M 65 166 h 3 v 1 h -3 Z M 129 166 h 25 v 1 h -25 Z M 216 166 h 2 v 1 h -2 Z M 230 166 h 40 v 1 h -40 Z M 12 167 h 42 v 1 h -42 Z M 66 167 h 1 v 1 h -1 Z M 129 167 h 25 v 1 h -25 Z M 216 167 h 2 v 1 h -2 Z M 230 167 h 41 v 1 h -41 Z M 11 168 h 37 v 1 h -37 Z M 51 168 h 2 v 1 h -2 Z M 66 168 h 1 v 1 h -1 Z M 129 168 h 25 v 1 h -25 Z M 216 168 h 2 v 1 h -2 Z M 230 168 h 3 v 1 h -3 Z M 235 168 h 37 v 1 h -37 Z M 10 169 h 36 v 1 h -36 Z M 51 169 h 2 v 1 h -2 Z M 66 169 h 1 v 1 h -1 Z M 129 169 h 25 v 1 h -25 Z M 230 169 h 3 v 1 h -3 Z M 237 169 h 37 v 1 h -37 Z M 9 170 h 34 v 1 h -34 Z M 51 170 h 2 v 1 h -2 Z M 129 170 h 25 v 1 h -25 Z M 230 170 h 3 v 1 h -3 Z M 240 170 h 35 v 1 h -35 Z M 8 171 h 33 v 1 h -33 Z M 51 171 h 2 v 1 h -2 Z M 129 171 h 25 v 1 h -25 Z M 230 171 h 3 v 1 h -3 Z M 242 171 h 34 v 1 h -34 Z M 7 172 h 32 v 1 h -32 Z M 51 172 h 2 v 1 h -2 Z M 129 172 h 25 v 1 h -25 Z M 230 172 h 2 v 1 h -2 Z M 245 172 h 31 v 1 h -31 Z M 7 173 h 29 v 1 h -29 Z M 51 173 h 2 v 1 h -2 Z M 129 173 h 25 v 1 h -25 Z M 230 173 h 2 v 1 h -2 Z M 247 173 h 30 v 1 h -30 Z M 6 174 h 28 v 1 h -28 Z M 52 174 h 1 v 1 h -1 Z M 129 174 h 25 v 1 h -25 Z M 231 174 h 1 v 1 h -1 Z M 250 174 h 27 v 1 h -27 Z M 6 175 h 25 v 1 h -25 Z M 129 175 h 25 v 1 h -25 Z M 252 175 h 25 v 1 h -25 Z M 6 176 h 23 v 1 h -23 Z M 129 176 h 25 v 1 h -25 Z M 255 176 h 23 v 1 h -23 Z M 6 177 h 20 v 1 h -20 Z M 129 177 h 25 v 1 h -25 Z M 257 177 h 21 v 1 h -21 Z M 6 178 h 18 v 1 h -18 Z M 129 178 h 25 v 1 h -25 Z M 259 178 h 19 v 1 h -19 Z M 6 179 h 16 v 1 h -16 Z M 129 179 h 25 v 1 h -25 Z M 262 179 h 16 v 1 h -16 Z M 6 180 h 13 v 1 h -13 Z M 129 180 h 25 v 1 h -25 Z M 264 180 h 14 v 1 h -14 Z M 5 181 h 12 v 1 h -12 Z M 129 181 h 25 v 1 h -25 Z M 266 181 h 12 v 1 h -12 Z M 5 182 h 9 v 1 h -9 Z M 129 182 h 25 v 1 h -25 Z M 269 182 h 9 v 1 h -9 Z M 5 183 h 7 v 1 h -7 Z M 129 183 h 25 v 1 h -25 Z M 271 183 h 7 v 1 h -7 Z M 5 184 h 5 v 1 h -5 Z M 129 184 h 25 v 1 h -25 Z M 274 184 h 4 v 1 h -4 Z M 5 185 h 2 v 1 h -2 Z M 129 185 h 25 v 1 h -25 Z M 276 185 h 2 v 1 h -2 Z M 130 186 h 24 v 1 h -24 Z M 130 187 h 24 v 1 h -24 Z M 130 188 h 24 v 1 h -24 Z M 130 189 h 24 v 1 h -24 Z M 130 190 h 24 v 1 h -24 Z M 130 191 h 24 v 1 h -24 Z M 130 192 h 23 v 1 h -23 Z M 130 193 h 23 v 1 h -23 Z M 130 194 h 23 v 1 h -23 Z M 130 195 h 23 v 1 h -23 Z M 130 196 h 23 v 1 h -23 Z M 130 197 h 23 v 1 h -23 Z M 130 198 h 23 v 1 h -23 Z M 131 199 h 22 v 1 h -22 Z M 131 200 h 22 v 1 h -22 Z M 131 201 h 22 v 1 h -22 Z M 131 202 h 21 v 1 h -21 Z M 131 203 h 21 v 1 h -21 Z M 131 204 h 21 v 1 h -21 Z M 131 205 h 21 v 1 h -21 Z M 132 206 h 20 v 1 h -20 Z M 132 207 h 20 v 1 h -20 Z M 132 208 h 20 v 1 h -20 Z M 132 209 h 19 v 1 h -19 Z M 132 210 h 19 v 1 h -19 Z M 132 211 h 19 v 1 h -19 Z M 133 212 h 18 v 1 h -18 Z M 133 213 h 18 v 1 h -18 Z M 132 214 h 20 v 1 h -20 Z M 131 215 h 22 v 1 h -22 Z M 129 216 h 25 v 1 h -25 Z M 128 217 h 27 v 1 h -27 Z M 127 218 h 30 v 1 h -30 Z M 126 219 h 32 v 1 h -32 Z M 124 220 h 35 v 1 h -35 Z M 123 221 h 37 v 1 h -37 Z M 122 222 h 40 v 1 h -40 Z M 121 223 h 42 v 1 h -42 Z M 119 224 h 45 v 1 h -45 Z M 118 225 h 47 v 1 h -47 Z M 117 226 h 50 v 1 h -50 Z M 116 227 h 52 v 1 h -52 Z M 114 228 h 55 v 1 h -55 Z M 113 229 h 57 v 1 h -57 Z M 112 230 h 60 v 1 h -60 Z M 111 231 h 62 v 1 h -62 Z M 109 232 h 65 v 1 h -65 Z M 108 233 h 67 v 1 h -67 Z M 107 234 h 70 v 1 h -70 Z M 106 235 h 72 v 1 h -72 Z M 104 236 h 75 v 1 h -75 Z M 103 237 h 77 v 1 h -77 Z M 102 238 h 80 v 1 h -80 Z M 101 239 h 82 v 1 h -82 Z M 99 240 h 35 v 1 h -35 Z M 138 240 h 7 v 1 h -7 Z M 149 240 h 35 v 1 h -35 Z M 98 241 h 34 v 1 h -34 Z M 139 241 h 6 v 1 h -6 Z M 152 241 h 33 v 1 h -33 Z M 97 242 h 32 v 1 h -32 Z M 139 242 h 6 v 1 h -6 Z M 154 242 h 32 v 1 h -32 Z M 96 243 h 30 v 1 h -30 Z M 139 243 h 5 v 1 h -5 Z M 157 243 h 31 v 1 h -31 Z M 94 244 h 30 v 1 h -30 Z M 139 244 h 5 v 1 h -5 Z M 160 244 h 29 v 1 h -29 Z M 93 245 h 28 v 1 h -28 Z M 139 245 h 5 v 1 h -5 Z M 162 245 h 28 v 1 h -28 Z M 92 246 h 26 v 1 h -26 Z M 140 246 h 4 v 1 h -4 Z M 165 246 h 26 v 1 h -26 Z M 91 247 h 24 v 1 h -24 Z M 140 247 h 4 v 1 h -4 Z M 168 247 h 24 v 1 h -24 Z M 90 248 h 23 v 1 h -23 Z M 140 248 h 3 v 1 h -3 Z M 171 248 h 22 v 1 h -22 Z M 90 249 h 20 v 1 h -20 Z M 140 249 h 3 v 1 h -3 Z M 173 249 h 20 v 1 h -20 Z M 90 250 h 17 v 1 h -17 Z M 140 250 h 3 v 1 h -3 Z M 176 250 h 18 v 1 h -18 Z M 90 251 h 15 v 1 h -15 Z M 141 251 h 2 v 1 h -2 Z M 179 251 h 15 v 1 h -15 Z M 90 252 h 12 v 1 h -12 Z M 141 252 h 2 v 1 h -2 Z M 181 252 h 13 v 1 h -13 Z M 90 253 h 9 v 1 h -9 Z M 141 253 h 1 v 1 h -1 Z M 184 253 h 10 v 1 h -10 Z M 89 254 h 7 v 1 h -7 Z M 141 254 h 1 v 1 h -1 Z M 187 254 h 7 v 1 h -7 Z M 89 255 h 5 v 1 h -5 Z M 189 255 h 5 v 1 h -5 Z M 89 256 h 2 v 1 h -2 Z M 192 256 h 2 v 1 h -2 Z" fill="black"/>
</svg>