<svg xmlns="http://www.w3.org/2000/svg" viewBox="0 0 202 231" width="202" height="231">
  <title>Boeing 777</title>
  <path d="M 100 5 h 2 v 1 h -2 Z M 99 6 h 4 v 1 h -4 Z M 99 7 h 5 v 1 h -5 Z M 98 8 h 7 v 1 h -7 Z M 98 9 h 7 v 1 h -7 Z M 97 10 h 9 v 1 h -9 Z M 97 11 h 9 v 1 h -9 Z M 96 12 h 10 v 1 h -10 Z M 96 13 h 11 v 1 h -11 Z M 96 14 h 11 v 1 h -11 Z M 95 15 h 12 v 1 h -12 Z M 95 16 h 13 v 1 h -13 Z M 95 17 h 13 v 1 h -13 Z M 94 18 h 14 v 1 h -14 Z M 94 19 h 15 v 1 h -15 Z M 94 20 h 15 v 1 h -15 Z M 94 21 h 15 v 1 h -15 Z M 93 22 h 16 v 1 h -16 Z M 93 23 h 16 v 1 h -16 Z M 93 24 h 17 v 1 h -17 Z M 93 25 h 17 v 1 h -17 Z M 93 26 h 17 v 1 h -17 Z M 93 27 h 17 v 1 h -17 Z M 93 28 h 17 v 1 h -17 Z M 93 29 h 17 v 1 h -17 Z M 93 30 h 17 v 1 h -17 Z M 93 31 h 17 v 1 h -17 Z M 93 32 h 17 v 1 h -17 Z M 93 33 h 17 v 1 h -17 Z M 93 34 h 17 v 1 h -17 Z M 93 35 h 17 v 1 h -17 Z M 93 36 h 17 v 1 h -17 Z M 93 37 h 17 v 1 h -17 Z M 92 38 h 18 v 1 h -18 Z M 92 39 h 18 v 1 h -18 Z M 92 40 h 18 v 1 h -18 Z M 92 41 h 18 v 1 h -18 Z M 92 42 h 18 v 1 h -18 Z M 92 43 h 18 v 1 h -18 Z M 92 44 h 18 v 1 h -18 Z M 92 45 h 18 v 1 h -18 Z M 92 46 h 18 v 1 h -18 Z M 92 47 h 18 v 1 h -18 Z M 92 48 h 18 v 1 h -18 Z M 92 49 h 18 v 1 h -18 Z M 92 50 h 18 v 1 h -18 Z M 92 51 h 18 v 1 h -18 Z M 92 52 h 18 v 1 h -18 Z M 92 53 h 18 v 1 h -18 Z M 92 54 h 18 v 1 h -18 Z M 92 55 h 18 v 1 h -18 Z M 92 56 h 18 v 1 h -18 Z M 92 57 h 18 v 1 h -18 Z M 92 58 h 18 v 1 h -18 Z M 92 59 h 18 v 1 h -18 Z M 92 60 h 18 v 1 h -18 Z M 92 61 h 18 v 1 h -18 Z M 92 62 h 18 v 1 h -18 Z M 92 63 h 18 v 1 h -18 Z M 92 64 h 18 v 1 h -18 Z M 92 65 h 18 v 1 h -18 Z M 92 66 h 18 v 1 h -18 Z M 92 67 h 18 v 1 h -18 Z M 92 68 h 18 v 1 h -18 Z M 92 69 h 18 v 1 h -18 Z M 92 70 h 18 v 1 h -18 Z M 92 71 h 18 v 1 h -18 Z M 92 72 h 18 v 1 h -18 Z M 92 73 h 18 v 1 h -18 Z M 92 74 h 18 v 1 h -18 Z M 92 75 h 18 v 1 h -18 Z M 92 76 h 18 v 1 h -18 Z M 92 77 h 18 v 1 h -18 Z M 92 78 h 18 v 1 h -18 Z M 92 79 h 18 v 1 h -18 Z M 92 80 h 18 v 1 h -18 Z M 67 81 h 11 v 1 h -11 Z M 92 81 h 18 v 1 h -18 Z M 125 81 h 11 v 1 h -11 Z M 67 82 h 11 v 1 h -11 Z M 92 82 h 18 v 1 h -18 Z M 125 82 h 11 v 1 h -11 Z M 67 83 h 11 v 1 h -11 Z M 92 83 h 19 v 1 h -19 Z M 125 83 h 11 v 1 h -11 Z M 67 84 h 11 v 1 h -11 Z M 92 84 h 19 v 1 h -19 Z M 125 84 h 11 v 1 h -11 Z M 67 85 h 11 v 1 h -11 Z M 91 85 h 20 v 1 h -20 Z M 125 85 h 11 v 1 h -11 Z M 66 86 h 12 v 1 h -12 Z M 90 86 h 22 v 1 h -22 Z M 124 86 h 12 v 1 h -12 Z M 66 87 h 12 v 1 h -12 Z M 89 87 h 24 v 1 h -24 Z M 124 87 h 12 v 1 h -12 Z M 66 88 h 12 v 1 h -12 Z M 88 88 h 27 v 1 h -27 Z M 124 88 h 12 v 1 h -12 Z M 66 89 h 12 v 1 h -12 Z M 86 89 h 30 v 1 h -30 Z M 124 89 h 12 v 1 h -12 Z M 66 90 h 12 v 1 h -12 Z M 85 90 h 33 v 1 h -33 Z M 124 90 h 12 v 1 h -12 Z M 67 91 h 11 v 1 h -11 Z M 83 91 h 36 v 1 h -36 Z M 124 91 h 12 v 1 h -12 Z M 67 92 h 11 v 1 h -11 Z M 82 92 h 39 v 1 h -39 Z M 124 92 h 12 v 1 h -12 Z M 67 93 h 11 v 1 h -11 Z M 80 93 h 42 v 1 h -42 Z M 124 93 h 12 v 1 h -12 Z M 67 94 h 69 v 1 h -69 Z M 67 95 h 68 v 1 h -68 Z M 68 96 h 66 v 1 h -66 Z M 69 97 h 65 v 1 h -65 Z M 69 98 h 65 v 1 h -65 Z M 69 99 h 64 v 1 h -64 Z M 69 100 h 64 v 1 h -64 Z M 68 101 h 67 v 1 h -67 Z M 67 102 h 69 v 1 h -69 Z M 65 103 h 72 v 1 h -72 Z M 64 104 h 75 v 1 h -75 Z M 62 105 h 78 v 1 h -78 Z M 61 106 h 81 v 1 h -81 Z M 59 107 h 84 v 1 h -84 Z M 58 108 h 87 v 1 h -87 Z M 56 109 h 90 v 1 h -90 Z M 55 110 h 93 v 1 h -93 Z M 53 111 h 96 v 1 h -96 Z M 52 112 h 99 v 1 h -99 Z M 50 113 h 102 v 1 h -102 Z M 49 114 h 105 v 1 h -105 Z M 47 115 h 109 v 1 h -109 Z M 45 116 h 112 v 1 h -112 Z M 44 117 h 115 v 1 h -115 Z M 42 118 h 118 v 1 h -118 Z M 41 119 h 121 v 1 h -121 Z M 39 120 h 124 v 1 h -124 Z M 38 121 h 127 v 1 h -127 Z M 36 122 h 130 v 1 h -130 Z M 35 123 h 133 v 1 h -133 Z M 33 124 h 136 v 1 h -136 Z M 32 125 h 38 v 1 h -38 Z M 71 125 h 2 v 1 h -2 Z M 74 125 h 8 v 1 h -8 Z M 83 125 h 41 v 1 h -41 Z M 125 125 h 4 v 1 h -4 Z M 133 125 h 38 v 1 h -38 Z M 30 126 h 36 v 1 h -36 Z M 92 126 h 18 v 1 h -18 Z M 126 126 h 1 v 1 h -1 Z M 137 126 h 35 v 1 h -35 Z M 29 127 h 34 v 1 h -34 Z M 92 127 h 19 v 1 h -19 Z M 140 127 h 34 v 1 h -34 Z M 27 128 h 33 v 1 h -33 Z M 92 128 h 18 v 1 h -18 Z M 142 128 h 33 v 1 h -33 Z M 26 129 h 31 v 1 h -31 Z M 92 129 h 18 v 1 h -18 Z M 146 129 h 31 v 1 h -31 Z M 24 130 h 30 v 1 h -30 Z M 92 130 h 18 v 1 h -18 Z M 148 130 h 30 v 1 h -30 Z M 23 131 h 28 v 1 h -28 Z M 92 131 h 18 v 1 h -18 Z M 152 131 h 28 v 1 h -28 Z M 21 132 h 27 v 1 h -27 Z M 92 132 h 18 v 1 h -18 Z M 155 132 h 26 v 1 h -26 Z M 20 133 h 25 v 1 h -25 Z M 92 133 h 18 v 1 h -18 Z M 158 133 h 25 v 1 h -25 Z M 18 134 h 24 v 1 h -24 Z M 43 134 h 1 v 1 h -1 Z M 92 134 h 18 v 1 h -18 Z M 161 134 h 23 v 1 h -23 Z M 17 135 h 22 v 1 h -22 Z M 92 135 h 18 v 1 h -18 Z M 164 135 h 22 v 1 h -22 Z M 15 136 h 21 v 1 h -21 Z M 92 136 h 18 v 1 h -18 Z M 167 136 h 21 v 1 h -21 Z M 14 137 h 19 v 1 h -19 Z M 92 137 h 18 v 1 h -18 Z M 170 137 h 19 v 1 h -19 Z M 12 138 h 18 v 1 h -18 Z M 92 138 h 18 v 1 h -18 Z M 173 138 h 17 v 1 h -17 Z M 11 139 h 16 v 1 h -16 Z M 92 139 h 18 v 1 h -18 Z M 176 139 h 16 v 1 h -16 Z M 10 140 h 14 v 1 h -14 Z M 92 140 h 18 v 1 h -18 Z M 179 140 h 14 v 1 h -14 Z M 9 141 h 12 v 1 h -12 Z M 92 141 h 18 v 1 h -18 Z M 182 141 h 12 v 1 h -12 Z M 8 142 h 10 v 1 h -10 Z M 92 142 h 18 v 1 h -18 Z M 185 142 h 10 v 1 h -10 Z M 7 143 h 8 v 1 h -8 Z M 92 143 h 18 v 1 h -18 Z M 188 143 h 7 v 1 h -7 Z M 7 144 h 5 v 1 h -5 Z M 92 144 h 18 v 1 h -18 Z M 190 144 h 6 v 1 h -6 Z M 6 145 h 4 v 1 h -4 Z M 92 145 h 18 v 1 h -18 Z M 193 145 h 4 v 1 h -4 Z M 5 146 h 3 v 1 h -3 Z M 92 146 h 18 v 1 h -18 Z M 195 146 h 2 v 1 h -2 Z M 5 147 h 1 v 1 h -1 Z M 92 147 h 18 v 1 h -18 Z M 92 148 h 18 v 1 h -18 Z M 92 149 h 18 v 1 h -18 Z M 92 150 h 18 v 1 h -18 Z M 92 151 h 18 v 1 h -18 Z M 92 152 h 18 v 1 h -18 Z M 92 153 h 18 v 1 h -18 Z M 92 154 h 18 v 1 h -18 Z M 92 155 h 18 v 1 h -18 Z M 92 156 h 18 v 1 h -18 Z M 92 157 h 18 v 1 h -18 Z M 92 158 h 18 v 1 h -18 Z M 92 159 h 18 v 1 h -18 Z M 92 160 h 18 v 1 h -18 Z M 92 161 h 18 v 1 h -18 Z M 92 162 h 18 v 1 h -18 Z M 92 163 h 18 v 1 h -18 Z M 92 164 h 18 v 1 h -18 Z M 92 165 h 18 v 1 h -18 Z M 92 166 h 18 v 1 h -18 Z M 92 167 h 18 v 1 h -18 Z M 92 168 h 18 v 1 h -18 Z M 92 169 h 18 v 1 h -18 Z M 92 170 h 18 v 1 h -18 Z M 92 171 h 18 v 1 h -18 Z M 92 172 h 18 v 1 h -18 Z M 92 173 h 18 v 1 h -18 Z M 93 174 h 17 v 1 h -17 Z M 93 175 h 17 v 1 h -17 Z M 93 176 h 17 v 1 h -17 Z M 93 177 h 17 v 1 h -17 Z M 93 178 h 17 v 1 h -17 Z M 93 179 h 17 v 1 h -17 Z M 93 180 h 17 v 1 h -17 Z M 93 181 h 17 v 1 h -17 Z M 93 182 h 17 v 1 h -17 Z M 93 183 h 17 v 1 h -17 Z M 93 184 h 17 v 1 h -17 Z M 93 185 h 17 v 1 h -17 Z M 93 186 h 16 v 1 h -16 Z M 94 187 h 15 v 1 h -15 Z M 94 188 h 15 v 1 h -15 Z M 94 189 h 15 v 1 h -15 Z M 94 190 h 15 v 1 h -15 Z M 94 191 h 14 v 1 h -14 Z M 95 192 h 13 v 1 h -13 Z M 95 193 h 13 v 1 h -13 Z M 95 194 h 13 v 1 h -13 Z M 95 195 h 13 v 1 h -13 Z M 95 196 h 12 v 1 h -12 Z M 95 197 h 12 v 1 h -12 Z M 95 198 h 13 v 1 h -13 Z M 93 199 h 16 v 1 h -16 Z M 92 200 h 19 v 1 h -19 Z M 91 201 h 21 v 1 h -21 Z M 90 202 h 23 v 1 h -23 Z M 88 203 h 26 v 1 h -26 Z M 87 204 h 28 v 1 h -28 Z M 86 205 h 31 v 1 h -31 Z M 85 206 h 33 v 1 h -33 Z M 84 207 h 35 v 1 h -35 Z M 82 208 h 38 v 1 h -38 Z M 81 209 h 41 v 1 h -41 Z M 80 210 h 43 v 1 h -43 Z M 79 211 h 45 v 1 h -45 Z M 77 212 h 48 v 1 h -48 Z M 76 213 h 51 v 1 h -51 Z M 75 214 h 53 v 1 h -53 Z M 74 215 h 24 v 1 h -24 Z M 99 215 h 30 v 1 h -30 Z M 72 216 h 24 v 1 h -24 Z M 100 216 h 3 v 1 h -3 Z M 107 216 h 23 v 1 h -23 Z M 71 217 h 22 v 1 h -22 Z M 100 217 h 3 v 1 h -3 Z M 110 217 h 22 v 1 h -22 Z M 70 218 h 20 v 1 h -20 Z M 100 218 h 3 v 1 h -3 Z M 113 218 h 20 v 1 h -20 Z M 69 219 h 18 v 1 h -18 Z M 100 219 h 2 v 1 h -2 Z M 115 219 h 18 v 1 h -18 Z M 69 220 h 15 v 1 h -15 Z M 101 220 h 1 v 1 h -1 Z M 118 220 h 16 v 1 h -16 Z M 69 221 h 13 v 1 h -13 Z M 101 221 h 1 v 1 h -1 Z M 121 221 h 13 v 1 h -13 Z M 69 222 h 10 v 1 h -10 Z M 124 222 h 10 v 1 h -10 Z M 69 223 h 7 v 1 h -7 Z M 127 223 h 7 v 1 h -7 Z M 69 224 h 4 v 1 h -4 Z M 129 224 h 5 v 1 h -5 Z M 69 225 h 1 v 1 h -1 Z M 132 225 h 1 v 1 h -1 Z" fill="black"/>
</svg>