<svg xmlns="http://www.w3.org/2000/svg" viewBox="0 0 139 170" width="139" height="170">
  <title>Boeing 727</title>
  <path d="M 68 5 h 3 v 1 h -3 Z M 67 6 h 5 v 1 h -5 Z M 67 7 h 6 v 1 h -6 Z M 66 8 h 7 v 1 h -7 Z M 66 9 h 8 v 1 h -8 Z M 66 10 h 8 v 1 h -8 Z M 65 11 h 9 v 1 h -9 Z M 65 12 h 10 v 1 h -10 Z M 65 13 h 10 v 1 h -10 Z M 64 14 h 11 v 1 h -11 Z M 64 15 h 11 v 1 h -11 Z M 64 16 h 12 v 1 h -12 Z M 64 17 h 12 v 1 h -12 Z M 64 18 h 12 v 1 h -12 Z M 63 19 h 13 v 1 h -13 Z M 63 20 h 13 v 1 h -13 Z M 63 21 h 14 v 1 h -14 Z M 63 22 h 14 v 1 h -14 Z M 63 23 h 14 v 1 h -14 Z M 62 24 h 15 v 1 h -15 Z M 62 25 h 15 v 1 h -15 Z M 62 26 h 15 v 1 h -15 Z M 62 27 h 15 v 1 h -15 Z M 62 28 h 16 v 1 h -16 Z M 62 29 h 16 v 1 h -16 Z M 62 30 h 16 v 1 h -16 Z M 62 31 h 16 v 1 h -16 Z M 62 32 h 16 v 1 h -16 Z M 62 33 h 16 v 1 h -16 Z M 62 34 h 16 v 1 h -16 Z M 62 35 h 16 v 1 h -16 Z M 62 36 h 16 v 1 h -16 Z M 62 37 h 16 v 1 h -16 Z M 62 38 h 16 v 1 h -16 Z M 62 39 h 16 v 1 h -16 Z M 62 40 h 16 v 1 h -16 Z M 62 41 h 16 v 1 h -16 Z M 62 42 h 16 v 1 h -16 Z M 61 43 h 17 v 1 h -17 Z M 61 44 h 17 v 1 h -17 Z M 61 45 h 17 v 1 h -17 Z M 61 46 h 17 v 1 h -17 Z M 61 47 h 17 v 1 h -17 Z M 61 48 h 17 v 1 h -17 Z M 61 49 h 17 v 1 h -17 Z M 61 50 h 17 v 1 h -17 Z M 61 51 h 17 v 1 h -17 Z M 61 52 h 17 v 1 h -17 Z M 61 53 h 17 v 1 h -17 Z M 61 54 h 17 v 1 h -17 Z M 61 55 h 17 v 1 h -17 Z M 61 56 h 17 v 1 h -17 Z M 61 57 h 17 v 1 h -17 Z M 61 58 h 17 v 1 h -17 Z M 61 59 h 17 v 1 h -17 Z M 60 60 h 19 v 1 h -19 Z M 59 61 h 21 v 1 h -21 Z M 58 62 h 23 v 1 h -23 Z M 57 63 h 25 v 1 h -25 Z M 56 64 h 27 v 1 h -27 Z M 55 65 h 29 v 1 h -29 Z M 54 66 h 31 v 1 h -31 Z M 52 67 h 35 v 1 h -35 Z M 51 68 h 37 v 1 h -37 Z M 50 69 h 39 v 1 h -39 Z M 49 70 h 41 v 1 h -41 Z M 48 71 h 43 v 1 h -43 Z M 46 72 h 46 v 1 h -46 Z M 45 73 h 49 v 1 h -49 Z M 44 74 h 51 v 1 h -51 Z M 43 75 h 53 v 1 h -53 Z M 41 76 h 57 v 1 h -57 Z M 40 77 h 59 v 1 h -59 Z M 38 78 h 63 v 1 h -63 Z M 37 79 h 65 v 1 h -65 Z M 35 80 h 68 v 1 h -68 Z M 34 81 h 71 v 1 h -71 Z M 32 82 h 74 v 1 h -74 Z M 31 83 h 77 v 1 h -77 Z M 29 84 h 80 v 1 h -80 Z M 28 85 h 83 v 1 h -83 Z M 26 86 h 86 v 1 h -86 Z M 25 87 h 89 v 1 h -89 Z M 23 88 h 92 v 1 h -92 Z M 22 89 h 94 v 1 h -94 Z M 20 90 h 98 v 1 h -98 Z M 19 91 h 38 v 1 h -38 Z M 61 91 h 17 v 1 h -17 Z M 81 91 h 38 v 1 h -38 Z M 17 92 h 33 v 1 h -33 Z M 61 92 h 17 v 1 h -17 Z M 88 92 h 33 v 1 h -33 Z M 16 93 h 28 v 1 h -28 Z M 61 93 h 17 v 1 h -17 Z M 94 93 h 28 v 1 h -28 Z M 15 94 h 27 v 1 h -27 Z M 61 94 h 17 v 1 h -17 Z M 96 94 h 28 v 1 h -28 Z M 13 95 h 27 v 1 h -27 Z M 61 95 h 17 v 1 h -17 Z M 99 95 h 26 v 1 h -26 Z M 12 96 h 25 v 1 h -25 Z M 61 96 h 17 v 1 h -17 Z M 101 96 h 26 v 1 h -26 Z M 10 97 h 25 v 1 h -25 Z M 61 97 h 17 v 1 h -17 Z M 103 97 h 25 v 1 h -25 Z M 9 98 h 24 v 1 h -24 Z M 61 98 h 17 v 1 h -17 Z M 106 98 h 24 v 1 h -24 Z M 7 99 h 23 v 1 h -23 Z M 61 99 h 17 v 1 h -17 Z M 108 99 h 23 v 1 h -23 Z M 7 100 h 21 v 1 h -21 Z M 55 100 h 5 v 1 h -5 Z M 61 100 h 17 v 1 h -17 Z M 79 100 h 5 v 1 h -5 Z M 110 100 h 22 v 1 h -22 Z M 6 101 h 20 v 1 h -20 Z M 55 101 h 5 v 1 h -5 Z M 61 101 h 17 v 1 h -17 Z M 79 101 h 5 v 1 h -5 Z M 112 101 h 20 v 1 h -20 Z M 6 102 h 17 v 1 h -17 Z M 55 102 h 5 v 1 h -5 Z M 61 102 h 17 v 1 h -17 Z M 79 102 h 5 v 1 h -5 Z M 115 102 h 18 v 1 h -18 Z M 6 103 h 15 v 1 h -15 Z M 55 103 h 5 v 1 h -5 Z M 61 103 h 17 v 1 h -17 Z M 79 103 h 5 v 1 h -5 Z M 117 103 h 16 v 1 h -16 Z M 5 104 h 13 v 1 h -13 Z M 55 104 h 29 v 1 h -29 Z M 119 104 h 14 v 1 h -14 Z M 5 105 h 11 v 1 h -11 Z M 55 105 h 29 v 1 h -29 Z M 122 105 h 11 v 1 h -11 Z M 5 106 h 9 v 1 h -9 Z M 55 106 h 29 v 1 h -29 Z M 124 106 h 10 v 1 h -10 Z M 5 107 h 6 v 1 h -6 Z M 55 107 h 29 v 1 h -29 Z M 126 107 h 8 v 1 h -8 Z M 5 108 h 4 v 1 h -4 Z M 55 108 h 29 v 1 h -29 Z M 129 108 h 5 v 1 h -5 Z M 5 109 h 2 v 1 h -2 Z M 55 109 h 29 v 1 h -29 Z M 131 109 h 3 v 1 h -3 Z M 55 110 h 29 v 1 h -29 Z M 55 111 h 29 v 1 h -29 Z M 55 112 h 29 v 1 h -29 Z M 55 113 h 29 v 1 h -29 Z M 55 114 h 28 v 1 h -28 Z M 56 115 h 27 v 1 h -27 Z M 56 116 h 27 v 1 h -27 Z M 56 117 h 27 v 1 h -27 Z M 57 118 h 25 v 1 h -25 Z M 57 119 h 25 v 1 h -25 Z M 57 120 h 3 v 1 h -3 Z M 61 120 h 20 v 1 h -20 Z M 58 121 h 1 v 1 h -1 Z M 62 121 h 14 v 1 h -14 Z M 64 122 h 11 v 1 h -11 Z M 64 123 h 11 v 1 h -11 Z M 64 124 h 10 v 1 h -10 Z M 65 125 h 9 v 1 h -9 Z M 65 126 h 9 v 1 h -9 Z M 65 127 h 8 v 1 h -8 Z M 65 128 h 8 v 1 h -8 Z M 66 129 h 7 v 1 h -7 Z M 66 130 h 7 v 1 h -7 Z M 66 131 h 7 v 1 h -7 Z M 66 132 h 6 v 1 h -6 Z M 66 133 h 6 v 1 h -6 Z M 67 134 h 5 v 1 h -5 Z M 67 135 h 5 v 1 h -5 Z M 67 136 h 5 v 1 h -5 Z M 67 137 h 5 v 1 h -5 Z M 66 138 h 7 v 1 h -7 Z M 65 139 h 9 v 1 h -9 Z M 63 140 h 12 v 1 h -12 Z M 62 141 h 14 v 1 h -14 Z M 61 142 h 16 v 1 h -16 Z M 60 143 h 19 v 1 h -19 Z M 59 144 h 21 v 1 h -21 Z M 58 145 h 23 v 1 h -23 Z M 56 146 h 26 v 1 h -26 Z M 55 147 h 28 v 1 h -28 Z M 54 148 h 30 v 1 h -30 Z M 53 149 h 33 v 1 h -33 Z M 52 150 h 35 v 1 h -35 Z M 50 151 h 38 v 1 h -38 Z M 49 152 h 40 v 1 h -40 Z M 48 153 h 42 v 1 h -42 Z M 48 154 h 18 v 1 h -18 Z M 67 154 h 4 v 1 h -4 Z M 73 154 h 18 v 1 h -18 Z M 48 155 h 15 v 1 h -15 Z M 68 155 h 3 v 1 h -3 Z M 75 155 h 16 v 1 h -16 Z M 48 156 h 12 v 1 h -12 Z M 68 156 h 3 v 1 h -3 Z M 78 156 h 13 v 1 h -13 Z M 48 157 h 9 v 1 h -9 Z M 68 157 h 2 v 1 h -2 Z M 81 157 h 10 v 1 h -10 Z M 48 158 h 6 v 1 h -6 Z M 68 158 h 2 v 1 h -2 Z M 84 158 h 7 v 1 h -7 Z M 48 159 h 3 v 1 h -3 Z M 68 159 h 2 v 1 h -2 Z M 87 159 h 4 v 1 h -4 Z M 68 160 h 2 v 1 h -2 Z M 90 160 h 1 v 1 h -1 Z M 68 161 h 2 v 1 h -2 Z M 68 162 h 2 v 1 h -2 Z M 69 163 h 1 v 1 h -1 Z M 69 164 h 1 v 1 h -1 Z" fill="black"/>
</svg>