<svg xmlns="http://www.w3.org/2000/svg" viewBox="0 0 60 54" width="60" height="54">
  <title>Cessna Citation</title>
  <path d="M 29 5 h 2 v 1 h -2 Z M 28 6 h 3 v 1 h -3 Z M 28 7 h 4 v 1 h -4 Z M 28 8 h 4 v 1 h -4 Z M 28 9 h 4 v 1 h -4 Z M 28 10 h 4 v 1 h -4 Z M 28 11 h 5 v 1 h -5 Z M 28 12 h 5 v 1 h -5 Z M 28 13 h 4 v 1 h -4 Z M 28 14 h 5 v 1 h -5 Z M 28 15 h 5 v 1 h -5 Z M 28 16 h 5 v 1 h -5 Z M 28 17 h 5 v 1 h -5 Z M 28 18 h 5 v 1 h -5 Z M 28 19 h 5 v 1 h -5 Z M 28 20 h 5 v 1 h -5 Z M 28 21 h 5 v 1 h -5 Z M 28 22 h 5 v 1 h -5 Z M 28 23 h 5 v 1 h -5 Z M 23 24 h 15 v 1 h -15 Z M 12 25 h 39 v 1 h -39 Z M 5 26 h 50 v 1 h -50 Z M 5 27 h 50 v 1 h -50 Z M 5 28 h 50 v 1 h -50 Z M 8 29 h 42 v 1 h -42 Z M 15 30 h 30 v 1 h -30 Z M 21 31 h 18 v 1 h -18 Z M 25 32 h 11 v 1 h -11 Z M 25 33 h 11 v 1 h -11 Z M 25 34 h 11 v 1 h -11 Z M 25 35 h 11 v 1 h -11 Z M 25 36 h 10 v 1 h -10 Z M 25 37 h 10 v 1 h -10 Z M 27 38 h 6 v 1 h -6 Z M 28 39 h 5 v 1 h -5 Z M 29 40 h 3 v 1 h -3 Z M 29 41 h 2 v 1 h -2 Z M 29 42 h 2 v 1 h -2 Z M 29 43 h 2 v 1 h -2 Z M 28 44 h 5 v 1 h -5 Z M 22 45 h 17 v 1 h -17 Z M 21 46 h 19 v 1 h -19 Z M 21 47 h 19 v 1 h -19 Z M 26 48 h 3 v 1 h -3 Z M 32 48 h 2 v 1 h -2 Z" fill="black"/>
</svg>